<svg xmlns="http://www.w3.org/2000/svg" width="198.964" height="22.497" viewBox="0 0 198.964 22.497">
  <g id="グループ_1707" data-name="グループ 1707" transform="translate(14626 9837.34)">
    <path id="Icon_awesome-phone-alt" data-name="Icon awesome-phone-alt" d="M17.652,12.84l-3.975-1.7a.852.852,0,0,0-.994.245l-1.76,2.151A13.154,13.154,0,0,1,4.635,7.244l2.151-1.76A.85.85,0,0,0,7.03,4.49L5.327.515A.857.857,0,0,0,4.351.022L.66.874A.852.852,0,0,0,0,1.7,16.465,16.465,0,0,0,16.467,18.171a.852.852,0,0,0,.83-.66l.852-3.691a.862.862,0,0,0-.5-.979Z" transform="translate(-14626 -9834.283)" fill="#fff"/>
    <path id="_078-392-0635" data-name="078-392-0635" d="M10.535-15.712q-.091-3.315-3.1-3.375-3.027.061-3.088,3.375v9.354Q4.4-3.012,7.432-2.982q3.012-.03,3.1-3.375Zm-9.354-.2a5.948,5.948,0,0,1,1.953-4.708,6.178,6.178,0,0,1,4.3-1.635,6.276,6.276,0,0,1,4.375,1.635A6.185,6.185,0,0,1,13.7-15.909v9.733a6.166,6.166,0,0,1-1.892,4.692A6.4,6.4,0,0,1,7.432.182a6.3,6.3,0,0,1-4.3-1.665A5.93,5.93,0,0,1,1.181-6.176Zm15.273-6.161H29.017v3.164L21.54,0H18.013l7.462-18.906H19.617v3.194H16.454Zm17.589,6.13a2.957,2.957,0,0,0,.984,2.331,3.165,3.165,0,0,0,2.165.833,3.223,3.223,0,0,0,2.21-.833,3.005,3.005,0,0,0,.954-2.331,3.061,3.061,0,0,0-.954-2.376,3.372,3.372,0,0,0-2.21-.772,3.309,3.309,0,0,0-2.165.772A3.011,3.011,0,0,0,34.042-15.939ZM30.47-6.448a5.759,5.759,0,0,1,2.6-4.965A6.473,6.473,0,0,1,31.53-13.4a4.6,4.6,0,0,1-.651-2.482,6.223,6.223,0,0,1,1.862-4.556,6.013,6.013,0,0,1,4.45-1.816,6.17,6.17,0,0,1,4.526,1.816,6.337,6.337,0,0,1,1.8,4.556,4.965,4.965,0,0,1-.59,2.482,7.378,7.378,0,0,1-1.6,1.983,5.759,5.759,0,0,1,2.6,4.965A6.29,6.29,0,0,1,41.974-1.68,6.844,6.844,0,0,1,37.191.182,6.61,6.61,0,0,1,32.483-1.68,6.193,6.193,0,0,1,30.47-6.448Zm3.164-.03A3.309,3.309,0,0,0,34.724-4a3.358,3.358,0,0,0,2.467,1.014A3.412,3.412,0,0,0,39.7-4a3.356,3.356,0,0,0,1.06-2.482A3.391,3.391,0,0,0,39.7-8.991a3.641,3.641,0,0,0-2.513-.984,3.585,3.585,0,0,0-2.467.984A3.342,3.342,0,0,0,33.634-6.479Zm12.654-3.693h9.324v3.164H46.288Zm16.408-2.6h1.09a3.4,3.4,0,0,0,2.513-.893,2.976,2.976,0,0,0,.893-2.24,3.2,3.2,0,0,0-.923-2.286,3.281,3.281,0,0,0-2.3-.893,2.927,2.927,0,0,0-1.847.651,3.274,3.274,0,0,0-1.181,2.013H57.777a6.444,6.444,0,0,1,1.983-4.132,5.766,5.766,0,0,1,4.087-1.7,6.329,6.329,0,0,1,4.783,1.922,6.353,6.353,0,0,1,1.726,4.359,6.773,6.773,0,0,1-.454,2.452,5.139,5.139,0,0,1-1.892,2.1,5.5,5.5,0,0,1,2.013,2.18,6.254,6.254,0,0,1,.59,2.664A6.493,6.493,0,0,1,68.69-1.68,6.637,6.637,0,0,1,63.907.182a6.057,6.057,0,0,1-4-1.453,6.911,6.911,0,0,1-2.255-4.208h3.164a4.459,4.459,0,0,0,1.2,1.786,3,3,0,0,0,2.089.711,3.189,3.189,0,0,0,2.346-.954,3.376,3.376,0,0,0,1-2.543,3.519,3.519,0,0,0-1-2.6,3.4,3.4,0,0,0-2.422-.893H62.7ZM75.4,0a5.009,5.009,0,0,1,.257-.552q.272-.552.711-1.43t.984-1.953l1.075-2.119q.53-1.044.991-1.922t.749-1.377a2.385,2.385,0,0,1-.991.31,9.446,9.446,0,0,1-1.279.023,4.623,4.623,0,0,1-1.748-.363,4.753,4.753,0,0,1-1.294-.833,4.879,4.879,0,0,1-.908-1.113,7.633,7.633,0,0,1-.583-1.2,6.775,6.775,0,0,1-.318-1.09,4.452,4.452,0,0,1-.1-.795q0-.091-.008-.333t-.008-.537q0-.3.008-.6a4.514,4.514,0,0,1,.038-.515q.015-.106.1-.537a6.617,6.617,0,0,1,.31-1.037,8.221,8.221,0,0,1,.636-1.294,5.753,5.753,0,0,1,1.067-1.294,6.136,6.136,0,0,1,1.62-1.044,7.017,7.017,0,0,1,2.278-.56,6.924,6.924,0,0,1,2.429.167,5.586,5.586,0,0,1,1.809.833,5.179,5.179,0,0,1,1.256,1.271,6.827,6.827,0,0,1,.78,1.476,6.55,6.55,0,0,1,.371,1.453,4.938,4.938,0,0,1,.03,1.2q-.091.742-.2,1.324t-.25,1.113q-.144.53-.325,1.044t-.424,1.12q-.061.167-.325.727t-.666,1.37q-.4.81-.878,1.8t-.976,1.99Q80.452-2.906,79.014,0Zm.681-15.984q0,.59.061,1.3a3.9,3.9,0,0,0,.356,1.34,2.73,2.73,0,0,0,.931,1.075,3.4,3.4,0,0,0,1.786.507,2.586,2.586,0,0,0,1.044-.144,3.025,3.025,0,0,0,.833-.462,3.332,3.332,0,0,0,.628-.651,4.827,4.827,0,0,0,.439-.719,3.384,3.384,0,0,0,.25-.658,2.112,2.112,0,0,0,.076-.484q-.015-.378-.023-.848a6.216,6.216,0,0,0-.091-.954,3.965,3.965,0,0,0-.28-.931,2.312,2.312,0,0,0-.56-.78,2.549,2.549,0,0,0-.931-.522,3.868,3.868,0,0,0-1.415-.144,2.842,2.842,0,0,0-1.536.469,3.717,3.717,0,0,0-.946.938,3.485,3.485,0,0,0-.484,1A3,3,0,0,0,76.077-15.984ZM88-2.982l8.613-10.777A4.151,4.151,0,0,0,97.3-14.97a4.492,4.492,0,0,0,.121-1,3.271,3.271,0,0,0-.772-2.165,2.932,2.932,0,0,0-2.271-.954,2.993,2.993,0,0,0-2.165.833,3.621,3.621,0,0,0-1.06,2.346H88a6.775,6.775,0,0,1,1.847-4.556,5.9,5.9,0,0,1,4.284-1.786,6.316,6.316,0,0,1,4.617,1.816,6.139,6.139,0,0,1,1.832,4.5,6.1,6.1,0,0,1-1.332,3.875l-7.1,8.9h8.431V0H88Zm15.53-7.19h9.324v3.164h-9.324Zm21.494-5.54q-.091-3.315-3.1-3.375-3.027.061-3.088,3.375v9.354q.061,3.345,3.088,3.375,3.012-.03,3.1-3.375Zm-9.354-.2a5.948,5.948,0,0,1,1.953-4.708,6.178,6.178,0,0,1,4.3-1.635,6.276,6.276,0,0,1,4.375,1.635,6.185,6.185,0,0,1,1.892,4.708v9.733A6.166,6.166,0,0,1,126.3-1.483,6.4,6.4,0,0,1,121.926.182a6.3,6.3,0,0,1-4.3-1.665,5.93,5.93,0,0,1-1.953-4.692Zm25.2-6.388a1.681,1.681,0,0,1-.144.325l-.431.885q-.272.56-.636,1.287L138.9-18.27q-.4.8-.817,1.62t-.8,1.559q-.386.742-.7,1.347t-.53.969a2.385,2.385,0,0,1,.991-.31,9.446,9.446,0,0,1,1.279-.023,4.99,4.99,0,0,1,1.824.363,4.862,4.862,0,0,1,1.34.833,4.854,4.854,0,0,1,.931,1.113A6.834,6.834,0,0,1,143-9.6a6.1,6.1,0,0,1,.3,1.09,5.228,5.228,0,0,1,.083.795v.87q0,.3-.008.6t-.023.515q-.015.106-.1.552a7.076,7.076,0,0,1-.3,1.06,8.074,8.074,0,0,1-.628,1.317,5.936,5.936,0,0,1-1.075,1.332,6.26,6.26,0,0,1-1.62,1.082,6.466,6.466,0,0,1-2.271.56,6.724,6.724,0,0,1-2.437-.182,5.8,5.8,0,0,1-1.832-.863A5.492,5.492,0,0,1,131.8-2.172a6.945,6.945,0,0,1-.81-1.506,6.756,6.756,0,0,1-.394-1.483,4.8,4.8,0,0,1-.038-1.211q.091-.742.2-1.324T131-8.81q.144-.53.325-1.044t.424-1.12q.061-.151.333-.719l.674-1.4q.4-.833.9-1.832t1-2.028q1.181-2.392,2.649-5.343Zm-.636,16.151q0-.575-.045-1.271a3.645,3.645,0,0,0-.341-1.324,2.711,2.711,0,0,0-.961-1.082A3.863,3.863,0,0,0,137-10.369a2.506,2.506,0,0,0-1.044.121,2.882,2.882,0,0,0-.833.454,3.234,3.234,0,0,0-.628.658,4.944,4.944,0,0,0-.439.734,3.493,3.493,0,0,0-.25.674,2.182,2.182,0,0,0-.076.477q0,.378.015.84a6.373,6.373,0,0,0,.1.923,3.746,3.746,0,0,0,.28.893,2.357,2.357,0,0,0,.56.764,2.819,2.819,0,0,0,.931.545,4.081,4.081,0,0,0,1.415.212,3.188,3.188,0,0,0,1.188-.174,2.956,2.956,0,0,0,.863-.484,2.749,2.749,0,0,0,.583-.658,3.9,3.9,0,0,0,.356-.711,3.417,3.417,0,0,0,.174-.628A2.878,2.878,0,0,0,140.242-6.146Zm9.46-6.63h1.09a3.4,3.4,0,0,0,2.513-.893,2.976,2.976,0,0,0,.893-2.24,3.2,3.2,0,0,0-.923-2.286,3.281,3.281,0,0,0-2.3-.893,2.927,2.927,0,0,0-1.847.651,3.274,3.274,0,0,0-1.181,2.013h-3.164a6.444,6.444,0,0,1,1.983-4.132,5.766,5.766,0,0,1,4.087-1.7,6.329,6.329,0,0,1,4.783,1.922,6.353,6.353,0,0,1,1.726,4.359,6.773,6.773,0,0,1-.454,2.452,5.139,5.139,0,0,1-1.892,2.1,5.5,5.5,0,0,1,2.013,2.18,6.254,6.254,0,0,1,.59,2.664A6.493,6.493,0,0,1,155.7-1.68,6.637,6.637,0,0,1,150.913.182a6.057,6.057,0,0,1-4-1.453,6.911,6.911,0,0,1-2.255-4.208h3.164a4.459,4.459,0,0,0,1.2,1.786,3,3,0,0,0,2.089.711,3.189,3.189,0,0,0,2.346-.954,3.376,3.376,0,0,0,1-2.543,3.519,3.519,0,0,0-1-2.6,3.4,3.4,0,0,0-2.422-.893H149.7Zm10.974-9.294h11.761v3.164h-8.779v5a5.559,5.559,0,0,1,3.527-1.211,6.655,6.655,0,0,1,2.331.454,5.073,5.073,0,0,1,1.62,1.15,5.341,5.341,0,0,1,1.332,2.1,7.548,7.548,0,0,1,.3,1.589q.091.954.091,2.346a13.732,13.732,0,0,1-.3,3.3,5.291,5.291,0,0,1-1.06,2.013A6.163,6.163,0,0,1,169.607-.59a5.6,5.6,0,0,1-2.876.772,6.894,6.894,0,0,1-4.1-1.332,6.269,6.269,0,0,1-2.346-4.4h3.164a2.935,2.935,0,0,0,3.164,2.573,3.228,3.228,0,0,0,1.816-.454,2.308,2.308,0,0,0,.908-1.15,5.387,5.387,0,0,0,.333-1.544q.03-.817.03-1.589a6.374,6.374,0,0,0-.59-3.073,2.358,2.358,0,0,0-.984-.893,4.209,4.209,0,0,0-1.62-.272,3.2,3.2,0,0,0-1.574.394,3.562,3.562,0,0,0-1.271,1.423h-2.982Z" transform="translate(-14599.897 -9815.044)" fill="#fff"/>
  </g>
</svg>
