<svg xmlns="http://www.w3.org/2000/svg" width="121.907" height="29.005" viewBox="0 0 121.907 29.005">
  <g id="グループ_46750" data-name="グループ 46750" transform="translate(0 0)">
    <path id="パス_93051" data-name="パス 93051" d="M2.849,4.882H2.21V3.174c-.185.108-.369.2-.548.289s-.352.159-.517.225-.321.121-.464.17-.275.09-.39.125L0,3.4c.2-.049.451-.116.737-.213A7.69,7.69,0,0,0,1.671,2.8a6.493,6.493,0,0,0,1-.608A5.534,5.534,0,0,0,3.62,1.3H.408V.714H2.216V0h.639V.714h1.52V1.3c-.061.079-.134.172-.222.278s-.192.223-.314.35a5.7,5.7,0,0,1-.427.4c-.163.138-.35.289-.562.439Zm1.93-.855c-.151-.118-.29-.221-.423-.314s-.261-.176-.391-.253-.262-.15-.4-.222-.294-.144-.464-.221l.4-.462c.078.032.186.078.312.135s.271.126.424.2.314.164.472.257a5,5,0,0,1,.457.3Z" transform="translate(51.373 20.26)" fill="#1a1311"/>
    <path id="パス_93052" data-name="パス 93052" d="M.431,1.656C.41,1.54.386,1.426.358,1.315S.3,1.094.262.986.186.77.143.662.051.448,0,.339L.526.183C.592.318.649.439.7.552s.089.22.126.323.07.205.1.31.057.213.084.331Zm0,1.459a4.459,4.459,0,0,0,1.132-.347,2.38,2.38,0,0,0,.778-.585A2.9,2.9,0,0,0,2.855,1.3,6.989,6.989,0,0,0,3.179.057l.607.109Q3.68.689,3.522,1.2a3.835,3.835,0,0,1-.475,1,3.03,3.03,0,0,1-.881.846,4.621,4.621,0,0,1-1.481.586Zm1.2-1.666c-.023-.157-.049-.3-.078-.428s-.064-.245-.1-.352-.066-.2-.1-.292-.067-.17-.1-.246L1.794,0a3.523,3.523,0,0,1,.163.363C2,.482,2.04.6,2.072.711s.056.22.075.32.034.194.045.279Z" transform="translate(56.899 21.495)" fill="#1a1311"/>
    <path id="パス_93053" data-name="パス 93053" d="M.673,0V1.436c.34.1.662.207.96.322s.57.235.812.349.453.224.627.318.312.174.406.228l-.3.644c-.157-.094-.343-.2-.547-.318s-.425-.233-.65-.347S1.52,2.411,1.3,2.32A4.758,4.758,0,0,0,.673,2.1V4.952H0V0Z" transform="translate(61.557 20.229)" fill="#1a1311"/>
    <path id="パス_93054" data-name="パス 93054" d="M4.073,3.837c-.048-.052-.1-.111-.168-.18s-.141-.147-.23-.235-.191-.187-.31-.3-.254-.23-.408-.363c-.1.125-.219.263-.363.411a5.989,5.989,0,0,1-.514.473,7.394,7.394,0,0,1-.718.517A10.17,10.17,0,0,1,.388,4.7L0,4.213C.066,4.186.158,4.15.272,4.1s.25-.117.4-.2a5.58,5.58,0,0,0,.51-.325,6.587,6.587,0,0,0,.593-.48c.066-.06.131-.121.193-.183s.123-.125.18-.187.112-.124.163-.185.1-.12.142-.177c-.188-.142-.358-.267-.514-.377s-.3-.207-.425-.292-.244-.159-.349-.225-.2-.124-.287-.177l.4-.5.3.181q.165.1.361.227t.42.276q.224.151.474.328c.132-.216.243-.419.337-.606S3.339.838,3.4.685s.112-.288.151-.4S3.622.072,3.645,0l.721.187c-.041.1-.094.225-.157.373s-.138.315-.222.5-.179.37-.283.564-.217.39-.34.581c.178.142.333.271.469.387s.252.222.352.316.185.177.257.25.133.137.185.191Z" transform="translate(65.324 20.381)" fill="#1a1311"/>
    <path id="パス_93055" data-name="パス 93055" d="M4.683,1.943v.579H2.848l-.009.165a3.87,3.87,0,0,1-.16.91,1.992,1.992,0,0,1-.388.708,2.139,2.139,0,0,1-.7.518A4.457,4.457,0,0,1,.5,5.165l-.27-.57a4.658,4.658,0,0,0,.757-.158,1.837,1.837,0,0,0,.613-.31,1.39,1.39,0,0,0,.412-.554,2.5,2.5,0,0,0,.173-.892V2.523H0v-.58ZM3.692,1.07H.354V.5H3.692Zm.263,0c0-.09-.007-.168-.014-.241S3.925.691,3.914.623,3.889.488,3.872.414,3.836.26,3.814.167L4.225.1c.022.076.042.15.061.224s.035.146.049.218.028.145.039.218A1.546,1.546,0,0,1,4.4.987ZM4.639.94Q4.628.824,4.609.7C4.6.617,4.583.546,4.567.471S4.534.324,4.517.258,4.482.131,4.466.077L4.852,0c.012.038.026.077.04.123s.029.1.045.164.033.141.052.235.038.2.059.336Z" transform="translate(70.67 19.974)" fill="#1a1311"/>
    <path id="パス_93056" data-name="パス 93056" d="M2.5,3.927H1.924V1.955c-.2.127-.382.234-.554.324S1.04,2.444.9,2.5s-.267.108-.374.145-.194.064-.26.085L0,2.231A7.809,7.809,0,0,0,1.027,1.81a6.829,6.829,0,0,0,.88-.522A6.288,6.288,0,0,0,2.648.68,6.1,6.1,0,0,0,3.259,0l.495.392c-.087.1-.173.19-.262.282s-.18.183-.278.276-.2.188-.321.288-.246.2-.39.317Z" transform="translate(75.908 21.24)" fill="#1a1311"/>
    <path id="パス_93057" data-name="パス 93057" d="M4.812,0a3.805,3.805,0,0,1-.281.972,2.889,2.889,0,0,1-.428.684,2.85,2.85,0,0,1-.492.458,3.768,3.768,0,0,1-.474.293l-.421-.5a3.157,3.157,0,0,0,.31-.157,2.1,2.1,0,0,0,.336-.25,1.968,1.968,0,0,0,.322-.371A2.355,2.355,0,0,0,3.949.594H0V0ZM.207,4.1a3.2,3.2,0,0,0,.684-.351,1.988,1.988,0,0,0,.531-.543,2.592,2.592,0,0,0,.346-.842A5.608,5.608,0,0,0,1.9,1.118l.685.015A6.123,6.123,0,0,1,2.42,2.442a3.36,3.36,0,0,1-.394.96,2.787,2.787,0,0,1-.606.69,3.955,3.955,0,0,1-.8.5Z" transform="translate(80.29 20.46)" fill="#1a1311"/>
    <path id="パス_93058" data-name="パス 93058" d="M2.91,1.4c-.036.094-.07.175-.1.246a2.046,2.046,0,0,1-.1.188c-.03.055-.06.1-.088.148s-.056.086-.083.127l-.56-.326.036-.046.04-.052.04-.056.039-.058H1.453v.465a2.669,2.669,0,0,0,.164.255c.061.084.126.167.194.248s.138.159.207.234.138.146.2.212l-.354.507c-.042-.05-.08-.1-.115-.144s-.068-.1-.1-.144-.064-.1-.1-.158-.066-.117-.1-.185v2.4H.92V2.659q-.055.186-.125.37t-.152.363q-.083.179-.18.351t-.206.335L0,3.372a4.55,4.55,0,0,0,.3-.463c.088-.157.166-.315.234-.47S.658,2.13.71,1.984.8,1.7.84,1.569H.111V1.012H.92V0h.533V1.012h.682v.554c.04-.062.079-.128.119-.2A2.867,2.867,0,0,0,2.378,1.1c.043-.1.087-.228.133-.378s.1-.324.147-.533l.585.085c-.009.04-.018.081-.029.124S3.193.48,3.18.527s-.026.1-.041.15-.031.108-.05.167h.432V0h.555V.844H5.261V1.4H4.077v.787h1.3v.56H4.258c.1.179.19.335.281.473a4.087,4.087,0,0,0,.274.374,3.7,3.7,0,0,0,.3.319c.107.1.222.2.352.306l-.291.62c-.052-.048-.124-.114-.208-.2s-.181-.186-.282-.307a4.367,4.367,0,0,1-.311-.418,4.117,4.117,0,0,1-.294-.531V5.265H3.522V3.4c-.085.14-.172.27-.263.393s-.186.24-.288.353-.211.222-.329.33-.246.215-.386.323L1.89,4.285c.123-.083.25-.174.378-.275a4.757,4.757,0,0,0,.383-.338,4.387,4.387,0,0,0,.372-.416,4.434,4.434,0,0,0,.345-.508H2.135v-.56H3.522V1.4Z" transform="translate(85.441 20.051)" fill="#1a1311"/>
    <path id="パス_93059" data-name="パス 93059" d="M4.624.942H5.23V1.5H3.547c.005.106.013.258.028.438s.036.391.067.613.072.458.127.691a4.52,4.52,0,0,0,.209.67c.007.015.028.065.06.132s.073.151.121.233a1.217,1.217,0,0,0,.16.221.264.264,0,0,0,.175.1c.048,0,.089-.036.125-.1a.961.961,0,0,0,.091-.229c.025-.089.046-.186.062-.277s.028-.176.037-.24l.515.292c-.02.108-.044.24-.078.378a2.655,2.655,0,0,1-.13.411,1.014,1.014,0,0,1-.21.33A.442.442,0,0,1,4.59,5.3a.789.789,0,0,1-.378-.114,1.547,1.547,0,0,1-.512-.5,3.746,3.746,0,0,1-.474-1.147A9.826,9.826,0,0,1,2.962,1.5H0V.942H2.946V.771C2.946.693,2.939.6,2.936.5S2.931.314,2.929.234s0-.147-.005-.183h.6V.757c0,.067,0,.129.005.186H4.538a2.074,2.074,0,0,0-.2-.14c-.068-.04-.129-.085-.2-.125S4.011.6,3.938.559,3.787.479,3.7.437L4.04,0c.072.034.148.072.225.113S4.421.2,4.5.244s.155.094.23.143.146.1.213.147ZM0,4.536.3,4.5l.365-.046L1,4.412l.2-.026V2.762H.1V2.2H2.8v.557H1.769V4.312c.161-.023.3-.045.429-.066l.333-.056.253-.047L2.973,4.1v.528c-.229.05-.481.1-.742.148s-.53.093-.79.135-.514.08-.743.113-.435.061-.6.081Z" transform="translate(91.168 19.995)" fill="#1a1311"/>
    <path id="パス_93060" data-name="パス 93060" d="M1.258,1.782c-.107.068-.2.125-.291.176S.8,2.05.726,2.088s-.142.069-.207.1-.126.055-.187.08L0,1.726a5.369,5.369,0,0,0,.694-.3,6.118,6.118,0,0,0,.681-.409,5.065,5.065,0,0,0,.6-.486A3.151,3.151,0,0,0,2.432,0h.642a2.765,2.765,0,0,0,.4.477,4.484,4.484,0,0,0,.554.455,6.306,6.306,0,0,0,.684.416,7.721,7.721,0,0,0,.788.359l-.357.56-.192-.1c-.069-.035-.143-.073-.219-.115s-.157-.086-.239-.134-.167-.1-.252-.155v.32H1.258ZM4.6,5.339l-.045-.084c-.014-.026-.029-.051-.045-.078s-.035-.057-.057-.092L4.37,4.962c-.192.02-.414.04-.67.06s-.547.04-.874.059-.692.036-1.1.051-.851.028-1.34.039L.3,4.59h.8c.037-.069.082-.159.13-.262s.1-.218.153-.338.1-.244.147-.365.084-.238.114-.343H.21v-.55H5.263v.543H2.342c-.048.114-.1.229-.148.343s-.1.228-.153.338-.1.217-.154.319-.1.2-.149.287l.643-.013c.176,0,.324-.008.475-.014l.489-.021.684-.034-.185-.244c-.056-.073-.107-.139-.157-.2s-.1-.121-.152-.179-.107-.117-.168-.178l.477-.291c.043.042.116.113.208.208s.2.216.325.357.252.3.383.478.262.369.384.572ZM3.922,1.553c-.151-.107-.291-.217-.418-.325s-.241-.213-.341-.311S2.979.732,2.91.658,2.79.525,2.756.486C2.7.554,2.638.626,2.568.7s-.148.16-.24.248-.195.182-.315.282-.257.206-.414.32Z" transform="translate(96.667 20.011)" fill="#1a1311"/>
    <path id="パス_93061" data-name="パス 93061" d="M1.5,5.279H.924V3.114c-.084.079-.158.144-.223.2s-.124.1-.177.139-.1.071-.146.1l-.132.083L0,3.064a4.268,4.268,0,0,0,.5-.349,3.968,3.968,0,0,0,.43-.4,3.424,3.424,0,0,0,.343-.435,2.74,2.74,0,0,0,.244-.455H.076V.877H.924V0H1.5V.877h.656v.548c-.024.053-.049.11-.08.173s-.066.133-.11.21-.1.161-.156.255-.134.2-.22.309c.071.081.133.148.192.207s.114.11.171.159.118.1.186.149.145.109.237.176l-.27.532c-.066-.053-.125-.1-.179-.15s-.1-.094-.151-.14-.092-.093-.137-.142-.09-.1-.138-.157ZM3.414,0H4V1.588H5.2v.6H4v2.3H5.333v.6H2v-.6H3.414v-2.3H2.242v-.6H3.414Z" transform="translate(102.315 20.032)" fill="#1a1311"/>
    <path id="パス_93062" data-name="パス 93062" d="M4.15,2.576V5.489q0,.157.012.291a2.084,2.084,0,0,0,.035.246,1.253,1.253,0,0,0,.059.2.755.755,0,0,0,.082.157A.545.545,0,0,0,4.45,6.5a.637.637,0,0,0,.149.086.906.906,0,0,0,.186.053,1.41,1.41,0,0,0,.223.021V7.6H0V6.663q.195,0,.354-.015A1.968,1.968,0,0,0,.639,6.6a.965.965,0,0,0,.213-.077.478.478,0,0,0,.142-.108.608.608,0,0,0,.094-.149,1.08,1.08,0,0,0,.067-.2,1.936,1.936,0,0,0,.045-.26q.014-.142.014-.312V3q0-.169-.013-.312a2.019,2.019,0,0,0-.04-.259A1.143,1.143,0,0,0,1.09,2.22.643.643,0,0,0,1,2.067a.459.459,0,0,0-.14-.112.936.936,0,0,0-.213-.08,1.935,1.935,0,0,0-.286-.048Q.2,1.812,0,1.812V.875L3.972.223A1.379,1.379,0,0,1,4.04.416a2.377,2.377,0,0,1,.053.239q.022.131.037.285t.021.329q.147-.159.3-.3t.3-.258Q4.9.592,5.063.492a3.521,3.521,0,0,1,.32-.177A3.121,3.121,0,0,1,5.709.176,2.953,2.953,0,0,1,6.38.019,3.057,3.057,0,0,1,6.725,0a3.849,3.849,0,0,1,.59.043,2.907,2.907,0,0,1,.523.13A2.391,2.391,0,0,1,8.3.389a2.235,2.235,0,0,1,.39.3A2.2,2.2,0,0,1,9,1.07a2.268,2.268,0,0,1,.223.442,2.683,2.683,0,0,1,.134.507A3.5,3.5,0,0,1,9.4,2.59v2.9q0,.168.014.309a1.908,1.908,0,0,0,.041.256,1.081,1.081,0,0,0,.068.2.625.625,0,0,0,.1.151.5.5,0,0,0,.14.11.913.913,0,0,0,.2.079,1.76,1.76,0,0,0,.268.047,3.207,3.207,0,0,0,.332.016V7.6H5.613V6.663a1.386,1.386,0,0,0,.178-.021A1.136,1.136,0,0,0,5.954,6.6.99.99,0,0,0,6.1,6.535a.937.937,0,0,0,.134-.087.442.442,0,0,0,.11-.134.88.88,0,0,0,.079-.2A1.8,1.8,0,0,0,6.47,5.84,3.4,3.4,0,0,0,6.486,5.5V2.812q0-.183-.013-.338A2.442,2.442,0,0,0,6.437,2.2a1.346,1.346,0,0,0-.063-.221.715.715,0,0,0-.087-.164A.68.68,0,0,0,6.175,1.7a.623.623,0,0,0-.133-.083.691.691,0,0,0-.155-.05.9.9,0,0,0-.176-.017,1.158,1.158,0,0,0-.189.016,1.286,1.286,0,0,0-.191.047,1.519,1.519,0,0,0-.193.079,1.872,1.872,0,0,0-.2.11,2.35,2.35,0,0,0-.2.146q-.1.081-.2.179t-.2.212q-.1.114-.2.244" transform="translate(37.215 9.522)" fill="#1a1311"/>
    <path id="パス_93063" data-name="パス 93063" d="M3.084,3.863q0,.364.031.683a4.814,4.814,0,0,0,.093.594,3.237,3.237,0,0,0,.155.5,2.238,2.238,0,0,0,.216.412,1.686,1.686,0,0,0,.278.321A1.522,1.522,0,0,0,4.2,6.6a1.7,1.7,0,0,0,.4.137,2.243,2.243,0,0,0,.464.046,1.978,1.978,0,0,0,.515-.068,2.146,2.146,0,0,0,.493-.2,2.763,2.763,0,0,0,.472-.338,3.931,3.931,0,0,0,.451-.473l.83.5a3.243,3.243,0,0,1-.282.352,3.53,3.53,0,0,1-.336.32,4.036,4.036,0,0,1-.391.287,4.786,4.786,0,0,1-.446.255,4.356,4.356,0,0,1-.487.21,4.414,4.414,0,0,1-.512.15,4.677,4.677,0,0,1-.537.09,5.159,5.159,0,0,1-.562.03,5.228,5.228,0,0,1-.849-.067,4.511,4.511,0,0,1-.786-.2,4.274,4.274,0,0,1-.72-.333,4.49,4.49,0,0,1-.659-.471,3.6,3.6,0,0,1-.55-.585,3.374,3.374,0,0,1-.393-.679,3.693,3.693,0,0,1-.236-.773A4.6,4.6,0,0,1,0,3.921a4.738,4.738,0,0,1,.076-.867A3.7,3.7,0,0,1,.3,2.286a3.3,3.3,0,0,1,.38-.67,3.46,3.46,0,0,1,.532-.572A4.344,4.344,0,0,1,1.855.587a4.147,4.147,0,0,1,.7-.326,4.382,4.382,0,0,1,.763-.2A5.074,5.074,0,0,1,4.143,0a5.442,5.442,0,0,1,.82.059,4.343,4.343,0,0,1,.743.179,3.77,3.77,0,0,1,.666.3,3.657,3.657,0,0,1,.588.42,2.861,2.861,0,0,1,.481.542,3.158,3.158,0,0,1,.344.665,4.05,4.05,0,0,1,.207.788,5.671,5.671,0,0,1,.069.91Zm-.016-.906H5.342a4.8,4.8,0,0,0-.093-.863,2.072,2.072,0,0,0-.224-.616,1,1,0,0,0-.355-.37A.948.948,0,0,0,4.182.986a1.07,1.07,0,0,0-.262.031.858.858,0,0,0-.226.092.872.872,0,0,0-.191.153,1.113,1.113,0,0,0-.157.214,1.62,1.62,0,0,0-.121.277,2.5,2.5,0,0,0-.087.339,3.854,3.854,0,0,0-.052.4q-.017.217-.017.465" transform="translate(48.187 9.522)" fill="#1a1311"/>
    <path id="パス_93064" data-name="パス 93064" d="M3.943,3.353V7.181q0,.24.008.439t.023.358a2.663,2.663,0,0,0,.039.277,1.124,1.124,0,0,0,.055.2.506.506,0,0,0,.079.134.434.434,0,0,0,.113.1.517.517,0,0,0,.146.057.784.784,0,0,0,.179.019.857.857,0,0,0,.28-.046.877.877,0,0,0,.251-.137,1.2,1.2,0,0,0,.222-.228,1.918,1.918,0,0,0,.193-.319l.876.291a2.727,2.727,0,0,1-.435.741,2.377,2.377,0,0,1-.627.53,2.907,2.907,0,0,1-.819.318,4.491,4.491,0,0,1-1.012.106,4.165,4.165,0,0,1-.572-.037,2.91,2.91,0,0,1-.5-.112,2.145,2.145,0,0,1-.421-.186,1.773,1.773,0,0,1-.345-.261,1.753,1.753,0,0,1-.268-.335,2.031,2.031,0,0,1-.192-.409A2.689,2.689,0,0,1,1.1,8.192a3.823,3.823,0,0,1-.039-.558V3.353H0V2.416l.221.01A3.055,3.055,0,0,0,.74,2.383a2.661,2.661,0,0,0,.48-.129,2.57,2.57,0,0,0,.441-.214,2.77,2.77,0,0,0,.4-.3,2.907,2.907,0,0,0,.345-.365A2.731,2.731,0,0,0,2.677.963,2.831,2.831,0,0,0,2.87.5,3.217,3.217,0,0,0,2.988,0h.955V2.416H6.136v.937Z" transform="translate(57.239 7.409)" fill="#1a1311"/>
    <path id="パス_93065" data-name="パス 93065" d="M4.246,2.671V5.49q0,.167.014.309a1.954,1.954,0,0,0,.04.257,1.111,1.111,0,0,0,.067.2.63.63,0,0,0,.093.151.492.492,0,0,0,.136.11.864.864,0,0,0,.2.079,1.609,1.609,0,0,0,.255.047,2.867,2.867,0,0,0,.313.016V7.6H0V6.663H.232a3.311,3.311,0,0,0,.345-.016A1.734,1.734,0,0,0,.852,6.6a.845.845,0,0,0,.2-.082A.434.434,0,0,0,1.19,6.4a.724.724,0,0,0,.085-.156,1.228,1.228,0,0,0,.061-.2,2.065,2.065,0,0,0,.037-.25q.012-.137.012-.3V3q0-.169-.013-.312a2,2,0,0,0-.04-.259,1.131,1.131,0,0,0-.067-.206.646.646,0,0,0-.093-.153.486.486,0,0,0-.145-.112.967.967,0,0,0-.216-.08A1.971,1.971,0,0,0,.523,1.83a3.318,3.318,0,0,0-.362-.018V.875L4.1.223A1.664,1.664,0,0,1,4.161.44q.028.12.047.263t.028.309q.009.166.009.356a4.42,4.42,0,0,1,.313-.322A4.048,4.048,0,0,1,4.893.767,3.829,3.829,0,0,1,5.247.532,3.757,3.757,0,0,1,5.622.34a3.824,3.824,0,0,1,.4-.149A3.964,3.964,0,0,1,6.431.085,4.269,4.269,0,0,1,6.864.021Q7.086,0,7.318,0A4.645,4.645,0,0,1,7.8.024,3.6,3.6,0,0,1,8.243.1a2.854,2.854,0,0,1,.395.122,2.373,2.373,0,0,1,.349.17,2.1,2.1,0,0,1,.305.217,2.067,2.067,0,0,1,.26.267,2.249,2.249,0,0,1,.215.317,2.658,2.658,0,0,1,.17.367,4.381,4.381,0,0,1,.292-.367,3.807,3.807,0,0,1,.317-.317,3.44,3.44,0,0,1,.342-.267,3.261,3.261,0,0,1,.367-.217,3.313,3.313,0,0,1,.39-.17A3.481,3.481,0,0,1,12.062.1,3.846,3.846,0,0,1,12.5.024,4.431,4.431,0,0,1,12.974,0q.2,0,.387.018a3.618,3.618,0,0,1,.369.055,3.346,3.346,0,0,1,.352.091,3.19,3.19,0,0,1,.334.127q.163.073.306.154a2.77,2.77,0,0,1,.266.172,2.261,2.261,0,0,1,.227.19,1.924,1.924,0,0,1,.188.208q.084.108.155.217t.127.216a2.2,2.2,0,0,1,.1.216,1.913,1.913,0,0,1,.07.216q.027.108.048.241t.035.29q.014.157.022.338t.007.385v2.36q0,.174.014.32a1.879,1.879,0,0,0,.042.262,1.019,1.019,0,0,0,.071.2.573.573,0,0,0,.1.148.5.5,0,0,0,.152.1,1.117,1.117,0,0,0,.23.074,2.376,2.376,0,0,0,.307.045q.173.015.385.015V7.6H12.007V6.663a2.709,2.709,0,0,0,.311-.016,1.5,1.5,0,0,0,.251-.049.8.8,0,0,0,.19-.081.468.468,0,0,0,.13-.114.661.661,0,0,0,.087-.153,1.174,1.174,0,0,0,.062-.2,2.063,2.063,0,0,0,.037-.253q.012-.138.012-.3V2.931a3.425,3.425,0,0,0-.017-.352,2.282,2.282,0,0,0-.051-.3,1.537,1.537,0,0,0-.086-.257,1.1,1.1,0,0,0-.121-.21.882.882,0,0,0-.156-.166.86.86,0,0,0-.192-.118,1.027,1.027,0,0,0-.228-.07,1.414,1.414,0,0,0-.264-.023,1.676,1.676,0,0,0-.51.079,1.807,1.807,0,0,0-.244.1,2.05,2.05,0,0,0-.237.136,2.315,2.315,0,0,0-.228.174,2.8,2.8,0,0,0-.22.212q-.108.116-.212.252t-.2.291V5.49q0,.165.013.3a1.953,1.953,0,0,0,.04.255,1.115,1.115,0,0,0,.066.2.639.639,0,0,0,.093.152.512.512,0,0,0,.137.113.861.861,0,0,0,.2.08,1.577,1.577,0,0,0,.255.048,2.818,2.818,0,0,0,.315.016V7.6H6.169V6.663a2.729,2.729,0,0,0,.3-.02,1.521,1.521,0,0,0,.244-.05.818.818,0,0,0,.187-.08A.476.476,0,0,0,7.03,6.4a.63.63,0,0,0,.09-.151,1.121,1.121,0,0,0,.064-.2,1.99,1.99,0,0,0,.04-.251q.013-.14.013-.3V2.947A3.333,3.333,0,0,0,7.219,2.6a2.267,2.267,0,0,0-.051-.3,1.551,1.551,0,0,0-.085-.256,1.113,1.113,0,0,0-.119-.209.869.869,0,0,0-.153-.162.856.856,0,0,0-.189-.116,1.011,1.011,0,0,0-.224-.07,1.356,1.356,0,0,0-.258-.023,1.533,1.533,0,0,0-.241.019,1.637,1.637,0,0,0-.24.057,1.864,1.864,0,0,0-.238.1,2.227,2.227,0,0,0-.237.132,2.7,2.7,0,0,0-.236.17q-.118.094-.235.208t-.234.246q-.117.132-.232.284" transform="translate(68.317 9.522)" fill="#1a1311"/>
    <path id="パス_93066" data-name="パス 93066" d="M3.087,3.863q0,.364.031.683a4.843,4.843,0,0,0,.092.594,3.24,3.24,0,0,0,.153.5,2.231,2.231,0,0,0,.215.412,1.7,1.7,0,0,0,.279.321A1.528,1.528,0,0,0,4.2,6.6a1.7,1.7,0,0,0,.4.137,2.241,2.241,0,0,0,.464.046,1.977,1.977,0,0,0,.515-.068,2.144,2.144,0,0,0,.493-.2,2.757,2.757,0,0,0,.472-.338,3.918,3.918,0,0,0,.45-.473l.829.5a3.171,3.171,0,0,1-.28.352,3.489,3.489,0,0,1-.336.32,4.022,4.022,0,0,1-.391.287,4.8,4.8,0,0,1-.446.255,4.358,4.358,0,0,1-.487.21,4.416,4.416,0,0,1-.511.15,4.672,4.672,0,0,1-.536.09,5.139,5.139,0,0,1-.561.03,5.247,5.247,0,0,1-.851-.067,4.519,4.519,0,0,1-.787-.2,4.264,4.264,0,0,1-.72-.333,4.457,4.457,0,0,1-.658-.471,3.6,3.6,0,0,1-.55-.585,3.374,3.374,0,0,1-.393-.679,3.693,3.693,0,0,1-.236-.773A4.605,4.605,0,0,1,0,3.921a4.738,4.738,0,0,1,.076-.867A3.7,3.7,0,0,1,.3,2.286a3.3,3.3,0,0,1,.38-.67,3.46,3.46,0,0,1,.532-.572A4.347,4.347,0,0,1,1.855.587a4.143,4.143,0,0,1,.7-.326,4.378,4.378,0,0,1,.763-.2A5.077,5.077,0,0,1,4.143,0a5.452,5.452,0,0,1,.821.059,4.35,4.35,0,0,1,.744.179,3.772,3.772,0,0,1,.666.3,3.653,3.653,0,0,1,.589.421,2.843,2.843,0,0,1,.48.542,3.147,3.147,0,0,1,.343.665,4.06,4.06,0,0,1,.2.788,5.721,5.721,0,0,1,.068.91ZM3.07,2.957H5.342a4.81,4.81,0,0,0-.092-.863,2.073,2.073,0,0,0-.223-.616,1,1,0,0,0-.355-.37A.947.947,0,0,0,4.184.986a1.069,1.069,0,0,0-.261.031.851.851,0,0,0-.418.245,1.092,1.092,0,0,0-.156.214,1.6,1.6,0,0,0-.122.277,2.468,2.468,0,0,0-.087.339,3.838,3.838,0,0,0-.052.4q-.017.217-.017.465" transform="translate(85.818 9.522)" fill="#1a1311"/>
    <path id="パス_93067" data-name="パス 93067" d="M6.137,11.287q-.156.146-.317.275t-.326.239a3.859,3.859,0,0,1-.335.2q-.17.09-.345.166a3.741,3.741,0,0,1-.355.13,3.663,3.663,0,0,1-.364.093,3.728,3.728,0,0,1-.373.055q-.189.018-.383.018a3.96,3.96,0,0,1-.688-.058,3.331,3.331,0,0,1-.627-.173,3.128,3.128,0,0,1-.567-.289,3.324,3.324,0,0,1-.508-.4,2.649,2.649,0,0,1-.417-.522,3.161,3.161,0,0,1-.3-.643,4.3,4.3,0,0,1-.178-.765A6.252,6.252,0,0,1,0,8.725a6.728,6.728,0,0,1,.067-.978,4.567,4.567,0,0,1,.2-.837A3.3,3.3,0,0,1,.6,6.21a2.741,2.741,0,0,1,.467-.555,3.9,3.9,0,0,1,.56-.424,3.541,3.541,0,0,1,.61-.3A3.6,3.6,0,0,1,2.9,4.75a4.1,4.1,0,0,1,.711-.06q.2,0,.393.015t.371.045q.18.03.349.075a3.383,3.383,0,0,1,.327.1,3.187,3.187,0,0,1,.3.135,2.946,2.946,0,0,1,.283.164,2.8,2.8,0,0,1,.5.417V2.767q0-.168-.014-.309a1.964,1.964,0,0,0-.04-.256A1.136,1.136,0,0,0,6.017,2a.667.667,0,0,0-.092-.153.468.468,0,0,0-.14-.111.929.929,0,0,0-.211-.079,1.882,1.882,0,0,0-.281-.048,3.494,3.494,0,0,0-.35-.016V.654L9.015,0V9.918a3.4,3.4,0,0,0,.016.345,1.885,1.885,0,0,0,.047.278.949.949,0,0,0,.079.211.486.486,0,0,0,.11.142.618.618,0,0,0,.156.1,1.143,1.143,0,0,0,.214.068,2.116,2.116,0,0,0,.272.041q.15.013.33.013v1q-.65.025-1.217.059t-1.054.078q-.486.044-.891.1t-.728.117a1.942,1.942,0,0,1-.093-.247,2.462,2.462,0,0,1-.066-.278q-.026-.147-.04-.31t-.013-.343m0-1.222V6.71l-.191-.173a1.9,1.9,0,0,0-.192-.15q-.1-.069-.193-.127a1.334,1.334,0,0,0-.194-.1q-.1-.044-.193-.077a1.971,1.971,0,0,0-.193-.056,1.754,1.754,0,0,0-.192-.034,1.67,1.67,0,0,0-.553.027,1.261,1.261,0,0,0-.314.116,1.193,1.193,0,0,0-.266.193,1.4,1.4,0,0,0-.217.271,1.891,1.891,0,0,0-.17.347,2.867,2.867,0,0,0-.121.426,4.409,4.409,0,0,0-.072.5q-.024.272-.024.584,0,.335.022.629t.066.546a3.582,3.582,0,0,0,.11.462,2.259,2.259,0,0,0,.155.377,1.485,1.485,0,0,0,.2.3,1.1,1.1,0,0,0,.241.21,1.03,1.03,0,0,0,.285.125,1.255,1.255,0,0,0,.329.042,1.579,1.579,0,0,0,.24-.019,1.711,1.711,0,0,0,.241-.055,1.959,1.959,0,0,0,.241-.092,2.335,2.335,0,0,0,.241-.129A2.066,2.066,0,0,0,5.65,10.7a1.848,1.848,0,0,0,.2-.184,1.754,1.754,0,0,0,.163-.208,1.777,1.777,0,0,0,.131-.231" transform="translate(95.255 4.832)" fill="#1a1311"/>
    <path id="パス_93068" data-name="パス 93068" d="M4.246,4.691v5.472q0,.17.013.313a2,2,0,0,0,.04.26,1.135,1.135,0,0,0,.067.208.652.652,0,0,0,.094.155.467.467,0,0,0,.141.111.95.95,0,0,0,.213.079,1.931,1.931,0,0,0,.284.048q.16.016.355.016v.939H0v-.939H.209a3.242,3.242,0,0,0,.344-.017,1.71,1.71,0,0,0,.274-.05.853.853,0,0,0,.205-.084.458.458,0,0,0,.136-.118.735.735,0,0,0,.087-.159,1.23,1.23,0,0,0,.062-.206,2.089,2.089,0,0,0,.037-.254q.012-.139.012-.3V7.5q0-.165-.012-.306a2.065,2.065,0,0,0-.038-.256,1.192,1.192,0,0,0-.063-.207.7.7,0,0,0-.09-.158.474.474,0,0,0-.138-.116.873.873,0,0,0-.2-.082,1.726,1.726,0,0,0-.272-.049,3.244,3.244,0,0,0-.34-.016H0V5.374Zm-3-3.086a1.654,1.654,0,0,1,.03-.317A1.488,1.488,0,0,1,1.36.995a1.53,1.53,0,0,1,.148-.27A1.785,1.785,0,0,1,1.714.477,1.748,1.748,0,0,1,1.962.268,1.515,1.515,0,0,1,2.233.119,1.485,1.485,0,0,1,2.527.03,1.656,1.656,0,0,1,2.845,0a1.7,1.7,0,0,1,.321.03A1.481,1.481,0,0,1,3.73.265,1.654,1.654,0,0,1,3.973.47a1.708,1.708,0,0,1,.2.248,1.506,1.506,0,0,1,.232.567,1.791,1.791,0,0,1,0,.641,1.523,1.523,0,0,1-.087.3,1.5,1.5,0,0,1-.146.272,1.669,1.669,0,0,1-.2.247,1.7,1.7,0,0,1-.247.207,1.481,1.481,0,0,1-.563.235,1.68,1.68,0,0,1-.316.029,1.738,1.738,0,0,1-.329-.03,1.5,1.5,0,0,1-.3-.091,1.454,1.454,0,0,1-.272-.151A1.611,1.611,0,0,1,1.7,2.727a1.824,1.824,0,0,1-.2-.251,1.582,1.582,0,0,1-.144-.271,1.521,1.521,0,0,1-.087-.291A1.636,1.636,0,0,1,1.24,1.6" transform="translate(106.32 4.831)" fill="#1a1311"/>
    <path id="パス_93069" data-name="パス 93069" d="M4.883,6.838q-.162.117-.328.219t-.336.19q-.17.088-.343.161t-.349.132q-.177.058-.358.1T2.8,7.715q-.185.029-.374.044t-.382.015a3.7,3.7,0,0,1-.48-.029,2.582,2.582,0,0,1-.415-.088A1.878,1.878,0,0,1,.8,7.512a1.5,1.5,0,0,1-.288-.2,1.669,1.669,0,0,1-.224-.246,1.44,1.44,0,0,1-.255-.577A1.674,1.674,0,0,1,0,6.156a1.761,1.761,0,0,1,.064-.475,1.836,1.836,0,0,1,.192-.446,2.327,2.327,0,0,1,.32-.417,3.325,3.325,0,0,1,.448-.388,5.616,5.616,0,0,1,.614-.387q.359-.2.821-.407T3.487,3.21q.566-.218,1.236-.445V2.107a2.23,2.23,0,0,0-.021-.32,1.254,1.254,0,0,0-.063-.257.735.735,0,0,0-.1-.2A.533.533,0,0,0,4.385,1.2a1.345,1.345,0,0,0-.177-.088,1.448,1.448,0,0,0-.193-.063,1.636,1.636,0,0,0-.209-.038A1.92,1.92,0,0,0,3.583,1a2.191,2.191,0,0,0-.5.051,1.153,1.153,0,0,0-.374.154.8.8,0,0,0-.249.257.961.961,0,0,0-.124.36,2.39,2.39,0,0,1-.056.262,1.655,1.655,0,0,1-.079.223,1.17,1.17,0,0,1-.1.184.883.883,0,0,1-.123.146.735.735,0,0,1-.151.113.95.95,0,0,1-.188.08,1.358,1.358,0,0,1-.225.048,2.008,2.008,0,0,1-.262.016,1.629,1.629,0,0,1-.241-.017A1.243,1.243,0,0,1,.7,2.826a1.026,1.026,0,0,1-.188-.085A.951.951,0,0,1,.35,2.622a1.032,1.032,0,0,1-.131-.141.843.843,0,0,1-.093-.153A.78.78,0,0,1,.07,2.163a.833.833,0,0,1-.019-.177,1.175,1.175,0,0,1,.068-.4,1.321,1.321,0,0,1,.205-.367A1.959,1.959,0,0,1,.663.883,3.264,3.264,0,0,1,1.142.577a4.087,4.087,0,0,1,.6-.253,5.419,5.419,0,0,1,.687-.18A7.354,7.354,0,0,1,3.2.036Q3.615,0,4.074,0q.255,0,.49.008t.449.023q.214.016.408.039t.366.055A3.265,3.265,0,0,1,6.116.2a2.7,2.7,0,0,1,.3.1A2.165,2.165,0,0,1,6.677.43,1.815,1.815,0,0,1,6.9.588a2.532,2.532,0,0,1,.194.173,1.921,1.921,0,0,1,.158.177,1.483,1.483,0,0,1,.123.182,1.2,1.2,0,0,1,.086.186,1.678,1.678,0,0,1,.062.2,2.234,2.234,0,0,1,.044.238q.017.128.027.272t.009.3v3.4a1.721,1.721,0,0,0,.029.337.748.748,0,0,0,.087.24.389.389,0,0,0,.145.144.414.414,0,0,0,.2.048.537.537,0,0,0,.184-.03.422.422,0,0,0,.146-.09A.527.527,0,0,0,8.5,6.216a.9.9,0,0,0,.072-.209h.741a2.149,2.149,0,0,1-.052.423,1.6,1.6,0,0,1-.13.363,1.394,1.394,0,0,1-.208.3,1.487,1.487,0,0,1-.285.245,2.387,2.387,0,0,1-.339.189,2.519,2.519,0,0,1-.371.134,2.862,2.862,0,0,1-.4.08,3.438,3.438,0,0,1-.435.027,4.5,4.5,0,0,1-.754-.059,2.794,2.794,0,0,1-.62-.176,1.912,1.912,0,0,1-.486-.293,1.65,1.65,0,0,1-.352-.41M4.722,5.9V3.769q-.308.129-.563.253T3.7,4.264a3.6,3.6,0,0,0-.349.229,1.711,1.711,0,0,0-.242.217,1.9,1.9,0,0,0-.165.213,1.429,1.429,0,0,0-.118.216,1.16,1.16,0,0,0-.071.219,1.056,1.056,0,0,0-.024.223.976.976,0,0,0,.014.167.928.928,0,0,0,.042.158.97.97,0,0,0,.069.15,1.108,1.108,0,0,0,.1.142.772.772,0,0,0,.12.118.692.692,0,0,0,.138.085.716.716,0,0,0,.156.051.846.846,0,0,0,.172.017A1.391,1.391,0,0,0,3.7,6.461a1.365,1.365,0,0,0,.155-.027,1.39,1.39,0,0,0,.151-.045,1.471,1.471,0,0,0,.148-.062q.073-.037.145-.082a1.737,1.737,0,0,0,.143-.1q.071-.053.141-.115t.139-.13" transform="translate(112.591 9.522)" fill="#1a1311"/>
    <path id="パス_93070" data-name="パス 93070" d="M17.535,0c-.842.01-1.825.02-2.842.1a14.676,14.676,0,0,0-3.046.532,6.771,6.771,0,0,0-2.6,1.386A4.9,4.9,0,0,0,7.528,4.684q-.054.245-.094.49t-.067.487q-.027.242-.04.482t-.013.477q0,.121.005.239t.014.236q.009.118.021.234t.026.234q-.285.1-.566.21T6.262,8q-.273.118-.537.247t-.518.271A12.094,12.094,0,0,0,2.97,10.107a9.623,9.623,0,0,0-1.632,1.9,8.338,8.338,0,0,0-1,2.156A8.211,8.211,0,0,0,0,16.514q0,.315.023.634t.07.642q.047.323.117.649t.164.654a4.1,4.1,0,0,0,1.343,2.121,4.783,4.783,0,0,0,2.155.935,10.591,10.591,0,0,0,2.609.116,27.023,27.023,0,0,0,2.7-.334c.085.13.173.26.267.389s.192.257.3.383.216.252.334.376.244.247.379.368A6.064,6.064,0,0,0,12.1,24.458a10.115,10.115,0,0,0,2.134.633,13.156,13.156,0,0,0,4.886-.028,10.44,10.44,0,0,0,1.7-.484,7.68,7.68,0,0,0,1.415-.71,5.681,5.681,0,0,0,1.1-.916,4.522,4.522,0,0,0,.756-1.1,3.857,3.857,0,0,0,.177-.434,4.746,4.746,0,0,0,.13-.458c.037-.158.066-.315.091-.476s.044-.325.059-.49c.172.312.33.626.471.941a9.534,9.534,0,0,1,.366.943,7,7,0,0,1,.238.933,5.178,5.178,0,0,1,.085.91q0,.164-.012.325t-.036.319q-.024.158-.061.313t-.086.307a2.98,2.98,0,0,1-.958,1.427,4.085,4.085,0,0,1-1.583.75,10.106,10.106,0,0,1-2.065.271c-.753.033-1.561.019-2.4-.009l-.5-.016a.772.772,0,0,0-.727.451.785.785,0,0,0-.07.3.758.758,0,0,0,.051.3.772.772,0,0,0,.159.251.786.786,0,0,0,.544.245l.493.016c.728.023,1.548.05,2.389.018a11.838,11.838,0,0,0,2.511-.332A5.715,5.715,0,0,0,25.554,27.6a4.467,4.467,0,0,0,1.439-2.142q.07-.214.122-.431T27.2,24.6q.033-.219.049-.44t.016-.442a7.177,7.177,0,0,0-.192-1.609,9.9,9.9,0,0,0-.527-1.607,13.623,13.623,0,0,0-.787-1.568c-.3-.512-.627-1.011-.974-1.49a11.441,11.441,0,0,0,.926-.722,10.582,10.582,0,0,0,.809-.779,10.173,10.173,0,0,0,1.294-1.721c.418-.126.826-.262,1.22-.409s.775-.306,1.139-.477.712-.353,1.041-.547a9.4,9.4,0,0,0,.926-.621.777.777,0,0,0,.133-.128.764.764,0,0,0,.154-.315.779.779,0,0,0,.02-.174.767.767,0,0,0-.01-.123.778.778,0,0,0-.03-.121.789.789,0,0,0-.05-.117.807.807,0,0,0-.07-.11.777.777,0,0,0-1.088-.144q-.256.2-.54.375t-.592.346q-.308.166-.639.319t-.68.293q.134-.4.23-.775t.157-.744q.061-.364.09-.712t.029-.679a7.786,7.786,0,0,0-.108-1.3,7.708,7.708,0,0,0-.287-1.152A7.987,7.987,0,0,0,28.447,5.9a8.433,8.433,0,0,0-.486-.856,9.48,9.48,0,0,0-1.87-2.084A12.05,12.05,0,0,0,23.6,1.36,13.753,13.753,0,0,0,17.535,0M8.868,6.6q0-.194.011-.39t.032-.395q.022-.2.054-.4t.077-.4a3.393,3.393,0,0,1,1.067-1.854,5.166,5.166,0,0,1,1.972-1.035,12.945,12.945,0,0,1,2.58-.457c.928-.083,1.908-.109,2.89-.119a12.192,12.192,0,0,1,2.761.292,12.051,12.051,0,0,1,2.556.876A10.423,10.423,0,0,1,25.042,4.1,8.042,8.042,0,0,1,26.66,5.889a6.71,6.71,0,0,1,.452.817,6.31,6.31,0,0,1,.324.853,6.192,6.192,0,0,1,.2.884,6.352,6.352,0,0,1,.065.911,6.854,6.854,0,0,1-.049.816A7.568,7.568,0,0,1,27.5,11a8.527,8.527,0,0,1-.247.846q-.148.426-.346.857a.572.572,0,0,1-.027.051l-.031.049-.031.048a.49.49,0,0,0-.028.05q-.438.117-.89.219t-.916.187q-.464.085-.937.154t-.953.119c-.185-.388-.38-.764-.58-1.124s-.406-.7-.613-1.026-.416-.624-.622-.9-.41-.524-.608-.741A8.861,8.861,0,0,0,18.224,7.9,10.819,10.819,0,0,0,15.29,6.878a13.725,13.725,0,0,0-3.19-.24,15.814,15.814,0,0,0-3.2.452c0-.04-.006-.081-.01-.121s-.008-.081-.011-.121-.007-.081-.009-.122,0-.082,0-.124m-7,12.063q-.084-.292-.145-.575t-.1-.555q-.04-.273-.059-.536t-.019-.516a6.436,6.436,0,0,1,.486-2.476A7.215,7.215,0,0,1,3.207,12.1a9.35,9.35,0,0,1,1.451-1.368,10.876,10.876,0,0,1,1.3-.855q.2-.113.414-.217t.429-.2q.218-.1.442-.188l.457-.18a7.959,7.959,0,0,0,.516,1.253,7.731,7.731,0,0,0,2.734,2.99q-.169.136-.33.28t-.313.3q-.152.151-.3.309t-.277.322a7.35,7.35,0,0,0-.643.929A7,7,0,0,0,8.6,16.492a6.487,6.487,0,0,0-.313,1.091,6,6,0,0,0-.11,1.138c0,.144.008.289.022.434s.035.29.062.436.06.291.1.437.08.291.127.437a23.387,23.387,0,0,1-2.375.262,8.177,8.177,0,0,1-1.961-.1A3.226,3.226,0,0,1,2.7,19.989a2.577,2.577,0,0,1-.835-1.324m17.658-7.831q.246.273.494.6c.165.218.33.445.492.688s.323.5.479.764.308.541.455.824H21.33l-.215-.181-.211-.174c-.07-.057-.138-.111-.2-.164s-.133-.1-.2-.149a7.993,7.993,0,0,0-2.059-1.109,7.266,7.266,0,0,0-2.092-.418,7.511,7.511,0,0,0-2.034.18,8.135,8.135,0,0,0-1.885.684,6.518,6.518,0,0,1-1.113-.692,6.2,6.2,0,0,1-1.636-1.9,6.321,6.321,0,0,1-.5-1.157,14.423,14.423,0,0,1,2.828-.418,12.459,12.459,0,0,1,2.816.179,9.463,9.463,0,0,1,2.578.851,7.3,7.3,0,0,1,2.116,1.6M18.59,13.69q-.494-.027-.973-.072t-.94-.107q-.461-.062-.9-.141t-.862-.175a6.346,6.346,0,0,1,.9-.1,5.875,5.875,0,0,1,.921.038,5.655,5.655,0,0,1,.929.192,5.769,5.769,0,0,1,.925.364M9.71,18.713a4.351,4.351,0,0,1,.091-.878A4.864,4.864,0,0,1,10.053,17a5.506,5.506,0,0,1,.388-.777,6.056,6.056,0,0,1,.494-.7,5.189,5.189,0,0,1,.36-.4q.191-.191.4-.367t.433-.336q.224-.161.459-.309a14.577,14.577,0,0,0,1.75.537c.626.152,1.291.278,1.986.376s1.417.167,2.158.209,1.5.053,2.269.036q.21.192.424.4t.43.426q.215.22.431.453t.429.48a18.529,18.529,0,0,1-2.065.937q-1.12.432-2.418.79T15.2,19.4q-1.484.284-3.157.494l-.306.049-.679.109-.693.111-.347.056q-.074-.189-.131-.378t-.1-.377q-.039-.188-.06-.375a3.438,3.438,0,0,1-.02-.37m15.749-3.924q-.154.165-.319.326t-.341.317q-.176.156-.363.308t-.386.3q-.037-.124-.075-.247t-.079-.245q-.041-.122-.084-.244t-.089-.243q.22-.026.439-.056t.435-.064q.217-.034.433-.071t.43-.078M12.234,21.427q1.693-.212,3.211-.5t2.862-.654q1.345-.365,2.518-.807a20.576,20.576,0,0,0,2.181-.961c.008.068.015.136.023.2s.015.136.021.2.011.135.015.2.006.132.006.2q0,.262-.022.511a4.715,4.715,0,0,1-.067.484,3.859,3.859,0,0,1-.116.452,3.222,3.222,0,0,1-.167.417,3.052,3.052,0,0,1-.562.8,4.258,4.258,0,0,1-.849.67,6.277,6.277,0,0,1-1.113.528,9.042,9.042,0,0,1-1.353.373,11.756,11.756,0,0,1-4.17.053,8.662,8.662,0,0,1-1.8-.5,4.689,4.689,0,0,1-1.352-.806q-.089-.079-.168-.159c-.053-.053-.1-.107-.153-.161s-.1-.108-.144-.162l-.139-.163.455-.074.435-.07.326-.053.128-.021" fill="#d1001b"/>
  </g>
</svg>
