<svg xmlns="http://www.w3.org/2000/svg" width="103.013" height="80.01" viewBox="0 0 103.013 80.01">
  <g id="グループ_46464" data-name="グループ 46464" transform="translate(0 -0.001)">
    <path id="パス_92946" data-name="パス 92946" d="M0,0H103.013V80.01H0Z" transform="translate(0 0.001)" fill="#333"/>
    <g id="グループ_46463" data-name="グループ 46463" transform="translate(16 22.001)">
      <path id="お問い合わせ" d="M3.349,12.934a.766.766,0,0,1-.267-.058,1.266,1.266,0,0,1-.282-.155.955.955,0,0,1-.224-.222.463.463,0,0,1-.091-.261.722.722,0,0,1,.086-.326,1.444,1.444,0,0,1,.245-.335,2.635,2.635,0,0,1,.382-.326,3.973,3.973,0,0,1,.5-.3c.006.156.011.307.016.45s.008.278.011.4.005.24.007.343,0,.193,0,.268a.934.934,0,0,1-.03.253.4.4,0,0,1-.081.158A.29.29,0,0,1,3.5,12.9a.448.448,0,0,1-.15.029ZM5.041,8.661v-.8q0-.135.007-.27c.2-.024.392-.05.589-.077s.393-.056.586-.087.382-.063.565-.1.36-.071.528-.11l-.03-1.486c-.156.045-.322.089-.495.13s-.353.081-.539.119-.375.073-.568.105-.388.063-.583.09l.009-.223q0-.11.009-.217t.009-.21q0-.1.009-.2c.006-.075.014-.164.022-.257s.017-.193.026-.29.018-.191.026-.274.016-.156.022-.21H3.6c.009.054.019.131.028.219s.019.188.027.29.015.2.02.3.008.176.008.239v.672c0,.1,0,.2-.007.3l-.176,0-.173.008-.169.005H2.653c-.12,0-.247-.007-.382-.013S1.993,6.3,1.84,6.289s-.316-.029-.49-.05l.024,1.44c.129.012.263.022.4.03s.278.014.419.018.283.008.423.009h.562L3.33,7.73l.163-.008.169-.009V9.334q0,.107.007.207a7.257,7.257,0,0,0-1.029.551,5.382,5.382,0,0,0-.848.67,3.127,3.127,0,0,0-.576.747,1.667,1.667,0,0,0-.212.78,1.641,1.641,0,0,0,.275.884,2.714,2.714,0,0,0,.693.717,3.616,3.616,0,0,0,.911.48,2.828,2.828,0,0,0,.93.175,1.512,1.512,0,0,0,.528-.083.957.957,0,0,0,.414-.293,1.449,1.449,0,0,0,.27-.57,3.707,3.707,0,0,0,.1-.913c0-.1,0-.236-.006-.393s-.009-.34-.015-.538-.013-.414-.02-.64-.014-.46-.02-.7q.275-.077.555-.137c.186-.04.374-.074.561-.1s.375-.049.561-.064.372-.022.555-.022A2.774,2.774,0,0,1,8,10.178a1.729,1.729,0,0,1,.554.249,1.152,1.152,0,0,1,.36.4,1.13,1.13,0,0,1,.129.538,1.256,1.256,0,0,1-.135.579,1.381,1.381,0,0,1-.369.444A2.145,2.145,0,0,1,8,12.7a3.376,3.376,0,0,1-.675.188c-.105.018-.215.032-.33.044s-.234.02-.357.026-.25.01-.38.012-.263,0-.4,0l.552,1.524c.117-.006.239-.014.364-.023s.254-.022.385-.037.265-.033.4-.055.273-.047.411-.077a4.851,4.851,0,0,0,1.2-.458,2.883,2.883,0,0,0,.811-.656,2.447,2.447,0,0,0,.458-.831,3.192,3.192,0,0,0,.144-.984,2.33,2.33,0,0,0-.948-1.914A3.23,3.23,0,0,0,8.6,8.947,4.492,4.492,0,0,0,7.32,8.77c-.165,0-.34.007-.522.02s-.371.033-.564.059-.392.059-.591.1-.4.084-.6.135ZM7.97,6.741c.186.09.422.212.681.353s.54.3.815.462.545.33.781.487a5.89,5.89,0,0,1,.58.427l.72-1.224c-.156-.111-.359-.243-.591-.386s-.491-.3-.759-.449S9.65,6.1,9.383,5.962s-.525-.275-.753-.386Zm8.269-1.356v.648H14.4V5.385ZM14.4,7.677V6.993h1.836v.684Zm3.168,1.08V4.293H12.986V15.046H14.4V8.757Zm1.38,2v1.416h-1.98V10.762Zm1.332,2.592V9.585H15.639v4.441h1.332v-.672Zm-.528-5.665v-.7h1.9v.7Zm1.9-2.316v.66h-1.9v-.66ZM23.1,4.293H18.4V8.769h3.252v4.549a.467.467,0,0,1-.017.136.193.193,0,0,1-.054.089.22.22,0,0,1-.1.048.6.6,0,0,1-.145.015c-.057,0-.151.006-.27.008s-.265,0-.424,0-.334,0-.512-.009-.359-.014-.534-.026c.051.1.1.21.154.333s.1.256.144.39.084.268.115.394a2.886,2.886,0,0,1,.067.347c.276,0,.53,0,.764-.009s.447-.019.642-.039a4.082,4.082,0,0,0,.527-.084,2.006,2.006,0,0,0,.42-.144,1.122,1.122,0,0,0,.318-.208.942.942,0,0,0,.207-.3,1.512,1.512,0,0,0,.113-.4,3.479,3.479,0,0,0,.034-.525Zm4.045,1.164-1.824-.024c.018.09.032.189.044.292s.02.21.026.317.01.212.012.312,0,.2,0,.279c0,.183,0,.407,0,.656s.01.525.02.811.023.584.04.879.039.585.066.858a10.578,10.578,0,0,0,.393,2.029,4.831,4.831,0,0,0,.633,1.352,2.425,2.425,0,0,0,.813.753,1.926,1.926,0,0,0,.933.234A1.6,1.6,0,0,0,29,14.059a2,2,0,0,0,.627-.477,4.374,4.374,0,0,0,.6-.864,10.864,10.864,0,0,0,.589-1.308l-1.2-1.44c-.057.234-.129.5-.214.759a6.774,6.774,0,0,1-.29.756,2.507,2.507,0,0,1-.353.581.563.563,0,0,1-.4.232.687.687,0,0,1-.489-.209,1.688,1.688,0,0,1-.37-.589,5.1,5.1,0,0,1-.255-.91c-.069-.35-.123-.745-.165-1.174-.018-.213-.032-.429-.043-.645s-.019-.433-.024-.646S27,7.7,27,7.5V6.9c0-.081,0-.185.011-.3s.017-.248.03-.381.028-.27.046-.4.04-.257.061-.362Zm5.941.252-1.512.5a5.925,5.925,0,0,1,.852,1.313,10.916,10.916,0,0,1,.623,1.6,15.99,15.99,0,0,1,.414,1.688c.1.553.179,1.086.224,1.563l1.572-.6a10.748,10.748,0,0,0-.236-1.524,15.583,15.583,0,0,0-.476-1.679,13.24,13.24,0,0,0-.663-1.6,6.975,6.975,0,0,0-.795-1.261ZM44.394,11.4v1.956h-4.74V11.4Zm-6.145,3.66h1.4v-.444H44.39v.444h1.464V10.137h-7.6Zm1.332-7.369q.369-.293.709-.6t.643-.612c.2-.206.39-.412.564-.617s.332-.409.473-.61c.144.2.308.4.487.605s.376.411.585.618.432.412.664.615.475.4.724.6Zm1.584-3.84A8.915,8.915,0,0,1,40.312,5,12.956,12.956,0,0,1,39.16,6.16a13.763,13.763,0,0,1-1.371,1.079,11.524,11.524,0,0,1-1.508.882c.078.075.161.164.245.26s.169.2.25.3A3.868,3.868,0,0,1,37,9c.065.1.13.2.178.287q.239-.131.476-.27t.472-.287q.234-.147.463-.3t.449-.317v.84h5.977V8.121q.225.162.454.317t.46.3q.231.144.462.276t.461.249c.063-.111.131-.224.2-.336s.146-.224.224-.333.159-.217.242-.32.169-.2.256-.3a10.444,10.444,0,0,1-1.427-.711,12.2,12.2,0,0,1-1.375-.953,12.5,12.5,0,0,1-1.254-1.15,11.366,11.366,0,0,1-1.076-1.312ZM52.723,6.057c.024-.186.048-.364.072-.531s.047-.324.069-.468.044-.275.065-.392.04-.218.058-.3l-1.74-.048q.022.135.033.27c.007.09.011.179.014.267s0,.176,0,.263V5.51c0,.057-.006.125-.011.2s-.01.166-.015.262-.012.2-.018.311l-.377.051-.365.045c-.118.014-.231.026-.336.036s-.2.018-.29.024-.2.011-.291.014l-.256.006h-.241l-.244-.007.144,1.524.54-.068.576-.074.558-.072.486-.062-.048.828c-.168.249-.369.535-.587.836s-.452.618-.686.93-.468.617-.686.9-.419.531-.587.735l.936,1.32c.1-.144.215-.306.336-.48s.248-.359.378-.551.264-.388.4-.585.264-.392.39-.581c-.006.252-.01.484-.014.7s-.007.429-.01.636-.006.41-.01.62-.008.426-.014.657v.182c0,.071,0,.151-.007.233s-.007.165-.011.244-.01.153-.016.216H52.55c-.006-.066-.014-.143-.022-.224s-.017-.167-.025-.251-.016-.167-.023-.242-.012-.143-.015-.2q-.027-.419-.042-.816t-.021-.78q-.006-.383-.008-.753c0-.247,0-.492,0-.735V10.3q0-.121.005-.245t.008-.249q.008-.125.009-.252a7.411,7.411,0,0,1,.77-.628A5.534,5.534,0,0,1,54,8.453a4.407,4.407,0,0,1,.867-.307,3.958,3.958,0,0,1,.918-.108,2.184,2.184,0,0,1,.8.146,1.829,1.829,0,0,1,.609.39A1.711,1.711,0,0,1,57.716,9.8a2.678,2.678,0,0,1-.265,1.212,2.506,2.506,0,0,1-.74.876,4.127,4.127,0,0,1-1.132.588,8.024,8.024,0,0,1-1.44.348l.708,1.44a8.757,8.757,0,0,0,1.941-.6,4.828,4.828,0,0,0,1.392-.932,3.591,3.591,0,0,0,.839-1.272A4.454,4.454,0,0,0,59.3,9.837a3.356,3.356,0,0,0-.254-1.306,3,3,0,0,0-.7-1.012,3.129,3.129,0,0,0-1.04-.654,3.576,3.576,0,0,0-1.287-.232A5.218,5.218,0,0,0,55.2,6.7a5.511,5.511,0,0,0-.869.214,5.971,5.971,0,0,0-.894.383,6.728,6.728,0,0,0-.9.573c0-.03.005-.059.007-.088s0-.057,0-.086V7.61a.378.378,0,0,1,.007-.088l.16-.244.164-.247L53.03,6.8c.048-.07.094-.132.133-.183ZM67.557,4.629c.009.054.019.13.028.218s.019.188.027.291.015.208.02.307.008.19.008.265V7.053l-.82.074-.827.076-.813.076-.78.074c0-.117,0-.23.007-.337s0-.209,0-.3V5.863c0-.108.007-.21.013-.308s.014-.193.023-.288.02-.19.032-.289H62.8c.015.105.029.209.04.314s.022.211.03.319.015.218.019.332.007.232.007.355V7.5l-.9.084c-.15.012-.3.023-.438.032s-.277.017-.4.023-.247.011-.355.014-.206,0-.29,0l.156,1.524.3-.047.389-.061.4-.061c.127-.019.243-.035.336-.047l.8-.084v2.284c0,.2,0,.363.007.489a5.892,5.892,0,0,0,.134,1.288,1.558,1.558,0,0,0,.479.832,2.221,2.221,0,0,0,1.049.447,9.822,9.822,0,0,0,1.842.133c.282,0,.584-.006.892-.017s.62-.026.922-.044.594-.039.861-.062.508-.047.709-.071l.06-1.632c-.222.042-.482.083-.766.12s-.591.071-.907.1-.64.052-.958.068-.63.025-.921.025a6.789,6.789,0,0,1-1.049-.059,1.154,1.154,0,0,1-.568-.218.748.748,0,0,1-.239-.436,4.046,4.046,0,0,1-.064-.714c-.006-.126-.01-.289-.012-.479s0-.408,0-.645,0-.491,0-.755,0-.537.008-.81l.788-.081.817-.078.822-.074.8-.067c0,.141-.007.281-.011.416s-.01.266-.017.389-.015.239-.024.344-.02.2-.032.281a.5.5,0,0,1-.04.139.211.211,0,0,1-.07.084.275.275,0,0,1-.108.041.861.861,0,0,1-.154.011,1.514,1.514,0,0,1-.22-.012c-.085-.012-.179-.019-.277-.033s-.2-.029-.3-.046-.2-.035-.294-.053l-.036,1.308c.105.018.243.038.4.059s.326.041.5.059.342.034.5.045.293.018.4.018a1.982,1.982,0,0,0,.4-.034.792.792,0,0,0,.3-.122.666.666,0,0,0,.206-.239,1.367,1.367,0,0,0,.126-.385c.024-.126.045-.281.064-.457s.035-.373.049-.582.027-.431.038-.657.021-.455.03-.68l.254-.016.238-.013.22-.01.2-.009.288-.009.333-.006H71.1V6.789l-.279.02-.3.022-.3.022-.266.02-.212.011-.221.014-.23.017-.239.018q0-.149.009-.3t.009-.313q0-.16.009-.327t.009-.342c0-.081.007-.174.011-.271s.01-.2.016-.293.013-.188.02-.266a1.915,1.915,0,0,1,.025-.19Z" transform="translate(0 18.378)" fill="#fff"/>
      <path id="Icon_ionic-md-mail" data-name="Icon ionic-md-mail" d="M14.787,0H1.557a1.542,1.542,0,0,0-.6.123A1.572,1.572,0,0,0,.123.952a1.542,1.542,0,0,0-.123.6V11.28a1.542,1.542,0,0,0,.123.6,1.571,1.571,0,0,0,.829.829,1.542,1.542,0,0,0,.6.123h13.23a1.542,1.542,0,0,0,.6-.123,1.571,1.571,0,0,0,.829-.829,1.542,1.542,0,0,0,.123-.6V1.556a1.542,1.542,0,0,0-.123-.6,1.571,1.571,0,0,0-.829-.829A1.542,1.542,0,0,0,14.787,0Zm-.195,3.308-6.42,4.28L1.751,3.307V1.751l6.421,4.28,6.421-4.28Z" transform="translate(28.004 0.001)" fill="#fff"/>
    </g>
  </g>
</svg>
