<svg xmlns="http://www.w3.org/2000/svg" width="128.016" height="30.962" viewBox="0 0 128.016 30.962">
  <g id="グループ_47649" data-name="グループ 47649" transform="translate(13368.99 4998.67)">
    <path id="Icon_awesome-phone-alt" data-name="Icon awesome-phone-alt" d="M11.24,8.176,8.709,7.092a.542.542,0,0,0-.633.156L6.955,8.617a8.376,8.376,0,0,1-4-4L4.321,3.492a.541.541,0,0,0,.156-.633L3.392.328A.546.546,0,0,0,2.77.014L.42.556A.542.542,0,0,0,0,1.085,10.484,10.484,0,0,0,10.485,11.57a.542.542,0,0,0,.529-.42l.542-2.35a.549.549,0,0,0-.317-.624Z" transform="translate(-13368.99 -4997.07)"/>
    <path id="パス_94212" data-name="パス 94212" d="M-49.336-4.1q-.059,2.158-2,2.178-1.953-.02-1.992-2.178v-6.035q.039-2.139,1.992-2.178,1.943.039,2,2.178Zm-6.035.117a3.826,3.826,0,0,0,1.26,3.027A4.063,4.063,0,0,0-51.338.117,4.126,4.126,0,0,0-48.516-.957a3.978,3.978,0,0,0,1.221-3.027v-6.279A3.99,3.99,0,0,0-48.516-13.3a4.049,4.049,0,0,0-2.822-1.055A3.986,3.986,0,0,0-54.111-13.3a3.837,3.837,0,0,0-1.26,3.037Zm9.854-6.152h2.041V-12.2H-39.7L-44.512,0h2.275l4.824-12.2v-2.041h-8.105Zm11.348-.146a1.943,1.943,0,0,1,.635-1.533,2.135,2.135,0,0,1,1.4-.5,2.175,2.175,0,0,1,1.426.5,1.975,1.975,0,0,1,.615,1.533,1.939,1.939,0,0,1-.615,1.5,2.079,2.079,0,0,1-1.426.537,2.042,2.042,0,0,1-1.4-.537A1.908,1.908,0,0,1-34.17-10.283Zm-2.3,6.123a4,4,0,0,0,1.3,3.076,4.264,4.264,0,0,0,3.037,1.2,4.416,4.416,0,0,0,3.086-1.2,4.058,4.058,0,0,0,1.26-3.076,3.715,3.715,0,0,0-1.68-3.2,4.76,4.76,0,0,0,1.035-1.279,3.2,3.2,0,0,0,.381-1.6,4.088,4.088,0,0,0-1.162-2.939,3.981,3.981,0,0,0-2.92-1.172,3.879,3.879,0,0,0-2.871,1.172,4.015,4.015,0,0,0-1.2,2.939,2.967,2.967,0,0,0,.42,1.6,4.176,4.176,0,0,0,1,1.279A3.715,3.715,0,0,0-36.475-4.16Zm2.041-.02a2.156,2.156,0,0,1,.7-1.621,2.313,2.313,0,0,1,1.592-.635,2.349,2.349,0,0,1,1.621.635,2.188,2.188,0,0,1,.684,1.621,2.165,2.165,0,0,1-.684,1.6,2.2,2.2,0,0,1-1.621.654,2.167,2.167,0,0,1-1.592-.654A2.135,2.135,0,0,1-34.434-4.18Zm8.164-.342h6.016V-6.562H-26.27Zm10.586-1.914h.859a2.2,2.2,0,0,1,1.563.576,2.27,2.27,0,0,1,.645,1.68,2.178,2.178,0,0,1-.645,1.641,2.057,2.057,0,0,1-1.514.615,1.933,1.933,0,0,1-1.348-.459,2.877,2.877,0,0,1-.771-1.152h-2.041A4.459,4.459,0,0,0-17.48-.82,3.908,3.908,0,0,0-14.9.117a4.282,4.282,0,0,0,3.086-1.2,4.189,4.189,0,0,0,1.24-3.154,4.035,4.035,0,0,0-.381-1.719,3.55,3.55,0,0,0-1.3-1.406,3.316,3.316,0,0,0,1.221-1.357,4.37,4.37,0,0,0,.293-1.582,4.1,4.1,0,0,0-1.113-2.812,4.083,4.083,0,0,0-3.086-1.24,3.72,3.72,0,0,0-2.637,1.094A4.158,4.158,0,0,0-18.857-10.6h2.041a2.112,2.112,0,0,1,.762-1.3,1.888,1.888,0,0,1,1.191-.42,2.117,2.117,0,0,1,1.484.576,2.064,2.064,0,0,1,.6,1.475,1.92,1.92,0,0,1-.576,1.445,2.192,2.192,0,0,1-1.621.576h-.7ZM-7.49,0a3.232,3.232,0,0,1,.166-.356q.176-.356.459-.923t.635-1.26l.693-1.367q.342-.674.64-1.24t.483-.889a1.538,1.538,0,0,1-.64.2,6.094,6.094,0,0,1-.825.015,2.983,2.983,0,0,1-1.128-.234,3.066,3.066,0,0,1-.835-.537,3.148,3.148,0,0,1-.586-.718A4.925,4.925,0,0,1-8.8-8.081a4.372,4.372,0,0,1-.205-.7A2.872,2.872,0,0,1-9.072-9.3q0-.059,0-.215t0-.347q0-.19,0-.386a2.912,2.912,0,0,1,.024-.332q.01-.068.063-.347a4.269,4.269,0,0,1,.2-.669,5.3,5.3,0,0,1,.41-.835,3.712,3.712,0,0,1,.688-.835,3.959,3.959,0,0,1,1.045-.674,4.527,4.527,0,0,1,1.47-.361,4.467,4.467,0,0,1,1.567.107,3.6,3.6,0,0,1,1.167.537,3.342,3.342,0,0,1,.811.82,4.4,4.4,0,0,1,.5.952,4.226,4.226,0,0,1,.239.938,3.186,3.186,0,0,1,.02.776q-.059.479-.127.854t-.161.718q-.093.342-.21.674t-.273.723q-.039.107-.21.469t-.43.884q-.259.522-.566,1.162T-3.477-3.4Q-4.229-1.875-5.156,0Zm.439-10.312q0,.381.039.84a2.517,2.517,0,0,0,.229.864,1.762,1.762,0,0,0,.6.693,2.191,2.191,0,0,0,1.152.327,1.669,1.669,0,0,0,.674-.093,1.952,1.952,0,0,0,.537-.3,2.15,2.15,0,0,0,.405-.42,3.114,3.114,0,0,0,.283-.464,2.183,2.183,0,0,0,.161-.425A1.362,1.362,0,0,0-2.92-9.6q-.01-.244-.015-.547a4.011,4.011,0,0,0-.059-.615,2.558,2.558,0,0,0-.181-.6,1.492,1.492,0,0,0-.361-.5,1.645,1.645,0,0,0-.6-.337,2.5,2.5,0,0,0-.913-.093,1.834,1.834,0,0,0-.991.3,2.4,2.4,0,0,0-.61.605,2.248,2.248,0,0,0-.312.645A1.938,1.938,0,0,0-7.051-10.312ZM.645,0H8.76V-2.041H3.32L7.9-7.783a3.936,3.936,0,0,0,.859-2.5,3.961,3.961,0,0,0-1.182-2.9A4.075,4.075,0,0,0,4.6-14.355,3.807,3.807,0,0,0,1.836-13.2,4.371,4.371,0,0,0,.645-10.264H2.676a2.336,2.336,0,0,1,.684-1.514,1.931,1.931,0,0,1,1.4-.537,1.892,1.892,0,0,1,1.465.615,2.11,2.11,0,0,1,.5,1.4,2.9,2.9,0,0,1-.078.645,2.678,2.678,0,0,1-.439.781L.645-1.924Zm10.02-4.521H16.68V-6.562H10.664Zm13.867.42q-.059,2.158-2,2.178-1.953-.02-1.992-2.178v-6.035q.039-2.139,1.992-2.178,1.943.039,2,2.178ZM18.5-3.984a3.826,3.826,0,0,0,1.26,3.027A4.063,4.063,0,0,0,22.529.117,4.126,4.126,0,0,0,25.352-.957a3.978,3.978,0,0,0,1.221-3.027v-6.279A3.99,3.99,0,0,0,25.352-13.3a4.049,4.049,0,0,0-2.822-1.055A3.986,3.986,0,0,0,19.756-13.3a3.837,3.837,0,0,0-1.26,3.037Zm16.26-10.4a1.084,1.084,0,0,1-.093.21l-.278.571q-.176.361-.41.83l-.493.986q-.259.518-.527,1.045t-.518,1.006q-.249.479-.454.869t-.342.625a1.539,1.539,0,0,1,.64-.2,6.094,6.094,0,0,1,.825-.015,3.219,3.219,0,0,1,1.177.234,3.137,3.137,0,0,1,.864.537,3.131,3.131,0,0,1,.6.718,4.409,4.409,0,0,1,.376.771,3.939,3.939,0,0,1,.19.7,3.372,3.372,0,0,1,.054.513v.562q0,.19,0,.386t-.015.332q-.01.068-.063.356a4.565,4.565,0,0,1-.2.684,5.21,5.21,0,0,1-.405.85,3.83,3.83,0,0,1-.693.859,4.039,4.039,0,0,1-1.045.7A4.172,4.172,0,0,1,32.48.107,4.338,4.338,0,0,1,30.908-.01a3.745,3.745,0,0,1-1.182-.557A3.544,3.544,0,0,1,28.9-1.4a4.481,4.481,0,0,1-.522-.972,4.359,4.359,0,0,1-.254-.957,3.1,3.1,0,0,1-.024-.781q.059-.479.127-.854t.161-.718q.093-.342.21-.674t.273-.723q.039-.1.215-.464l.435-.9q.259-.537.581-1.182t.645-1.309q.762-1.543,1.709-3.447Zm-.41,10.42q0-.371-.029-.82a2.352,2.352,0,0,0-.22-.854,1.749,1.749,0,0,0-.62-.7,2.492,2.492,0,0,0-1.221-.352,1.617,1.617,0,0,0-.674.078,1.859,1.859,0,0,0-.537.293,2.087,2.087,0,0,0-.405.425,3.189,3.189,0,0,0-.283.474,2.253,2.253,0,0,0-.161.435,1.408,1.408,0,0,0-.049.308q0,.244.01.542a4.112,4.112,0,0,0,.063.6,2.417,2.417,0,0,0,.181.576,1.52,1.52,0,0,0,.361.493,1.818,1.818,0,0,0,.6.352,2.633,2.633,0,0,0,.913.137,2.057,2.057,0,0,0,.767-.112,1.907,1.907,0,0,0,.557-.312,1.773,1.773,0,0,0,.376-.425,2.516,2.516,0,0,0,.229-.459,2.2,2.2,0,0,0,.112-.405A1.857,1.857,0,0,0,34.346-3.965Zm6.1-2.471h.859a2.2,2.2,0,0,1,1.563.576,2.27,2.27,0,0,1,.645,1.68,2.178,2.178,0,0,1-.645,1.641,2.057,2.057,0,0,1-1.514.615,1.933,1.933,0,0,1-1.348-.459,2.877,2.877,0,0,1-.771-1.152H37.2A4.459,4.459,0,0,0,38.652-.82,3.908,3.908,0,0,0,41.23.117a4.282,4.282,0,0,0,3.086-1.2,4.189,4.189,0,0,0,1.24-3.154,4.035,4.035,0,0,0-.381-1.719,3.55,3.55,0,0,0-1.3-1.406A3.316,3.316,0,0,0,45.1-8.721a4.37,4.37,0,0,0,.293-1.582,4.1,4.1,0,0,0-1.113-2.812,4.083,4.083,0,0,0-3.086-1.24,3.72,3.72,0,0,0-2.637,1.094A4.158,4.158,0,0,0,37.275-10.6h2.041a2.112,2.112,0,0,1,.762-1.3,1.888,1.888,0,0,1,1.191-.42,2.117,2.117,0,0,1,1.484.576,2.064,2.064,0,0,1,.6,1.475,1.92,1.92,0,0,1-.576,1.445,2.192,2.192,0,0,1-1.621.576h-.7Zm7.08-.107h1.924a2.3,2.3,0,0,1,.82-.918,2.063,2.063,0,0,1,1.016-.254,2.715,2.715,0,0,1,1.045.176,1.521,1.521,0,0,1,.635.576A4.112,4.112,0,0,1,53.35-4.98q0,.5-.02,1.025a3.475,3.475,0,0,1-.215,1,1.489,1.489,0,0,1-.586.742,2.083,2.083,0,0,1-1.172.293,1.893,1.893,0,0,1-2.041-1.66H47.275A4.045,4.045,0,0,0,48.789-.742a4.448,4.448,0,0,0,2.646.859,3.613,3.613,0,0,0,1.855-.5A3.976,3.976,0,0,0,54.512-1.4,3.413,3.413,0,0,0,55.2-2.7a8.86,8.86,0,0,0,.2-2.129q0-.9-.059-1.514a4.87,4.87,0,0,0-.2-1.025,3.445,3.445,0,0,0-.859-1.357,3.273,3.273,0,0,0-1.045-.742,4.294,4.294,0,0,0-1.5-.293,3.587,3.587,0,0,0-2.275.781V-12.2h5.664v-2.041H47.529Z" transform="translate(-13296.365 -4984.285)"/>
    <path id="パス_94213" data-name="パス 94213" d="M-27.771,0a1.939,1.939,0,0,1,.1-.214q.105-.214.275-.554t.381-.756l.416-.82q.205-.4.384-.744t.29-.533a.923.923,0,0,1-.384.12,3.657,3.657,0,0,1-.5.009,1.79,1.79,0,0,1-.677-.141,1.84,1.84,0,0,1-.5-.322,1.889,1.889,0,0,1-.352-.431,2.955,2.955,0,0,1-.226-.463,2.623,2.623,0,0,1-.123-.422,1.723,1.723,0,0,1-.038-.308q0-.035,0-.129t0-.208q0-.114,0-.231a1.747,1.747,0,0,1,.015-.2q.006-.041.038-.208a2.561,2.561,0,0,1,.12-.4,3.182,3.182,0,0,1,.246-.5,2.227,2.227,0,0,1,.413-.5,2.375,2.375,0,0,1,.627-.4,2.716,2.716,0,0,1,.882-.217,2.68,2.68,0,0,1,.94.064,2.162,2.162,0,0,1,.7.322,2,2,0,0,1,.486.492,2.643,2.643,0,0,1,.3.571,2.535,2.535,0,0,1,.144.563A1.911,1.911,0,0,1-23.8-6.1q-.035.287-.076.513t-.1.431q-.056.205-.126.4t-.164.434q-.023.064-.126.281t-.258.53q-.155.313-.34.7t-.378.771L-26.37,0Zm.264-6.187q0,.229.023.5a1.51,1.51,0,0,0,.138.519,1.057,1.057,0,0,0,.36.416,1.314,1.314,0,0,0,.691.2,1,1,0,0,0,.4-.056,1.171,1.171,0,0,0,.322-.179,1.29,1.29,0,0,0,.243-.252,1.869,1.869,0,0,0,.17-.278,1.31,1.31,0,0,0,.1-.255.817.817,0,0,0,.029-.187q-.006-.146-.009-.328a2.406,2.406,0,0,0-.035-.369,1.535,1.535,0,0,0-.108-.36.9.9,0,0,0-.217-.3.987.987,0,0,0-.36-.2,1.5,1.5,0,0,0-.548-.056A1.1,1.1,0,0,0-26.9-7.2a1.439,1.439,0,0,0-.366.363,1.349,1.349,0,0,0-.187.387A1.163,1.163,0,0,0-27.507-6.187Zm5.057,3.463h1.225V-3.949H-22.45Zm0,2.725h1.225V-1.225H-22.45Zm4.16-3.861h.516a1.317,1.317,0,0,1,.938.346,1.362,1.362,0,0,1,.387,1.008,1.307,1.307,0,0,1-.387.984,1.234,1.234,0,0,1-.908.369,1.16,1.16,0,0,1-.809-.275,1.726,1.726,0,0,1-.463-.691h-1.225a2.675,2.675,0,0,0,.873,1.629A2.345,2.345,0,0,0-17.821.07,2.569,2.569,0,0,0-15.97-.65a2.513,2.513,0,0,0,.744-1.893,2.421,2.421,0,0,0-.229-1.031,2.13,2.13,0,0,0-.779-.844,1.989,1.989,0,0,0,.732-.814,2.622,2.622,0,0,0,.176-.949,2.459,2.459,0,0,0-.668-1.687,2.45,2.45,0,0,0-1.852-.744,2.232,2.232,0,0,0-1.582.656,2.5,2.5,0,0,0-.768,1.6h1.225a1.267,1.267,0,0,1,.457-.779,1.133,1.133,0,0,1,.715-.252,1.27,1.27,0,0,1,.891.346,1.238,1.238,0,0,1,.357.885,1.152,1.152,0,0,1-.346.867,1.315,1.315,0,0,1-.973.346h-.422Zm7.729,1.4q-.035,1.295-1.2,1.307-1.172-.012-1.2-1.307V-6.082q.023-1.283,1.2-1.307,1.166.023,1.2,1.307Zm-3.621.07a2.3,2.3,0,0,0,.756,1.816A2.438,2.438,0,0,0-11.763.07a2.475,2.475,0,0,0,1.693-.645,2.387,2.387,0,0,0,.732-1.816V-6.158a2.394,2.394,0,0,0-.732-1.822,2.43,2.43,0,0,0-1.693-.633,2.392,2.392,0,0,0-1.664.633,2.3,2.3,0,0,0-.756,1.822ZM-7.44-3.648a2.646,2.646,0,0,1,2.088-1.1,3.424,3.424,0,0,1,2.064.816,6.133,6.133,0,0,0,1.644.888A3.414,3.414,0,0,0-.588-2.88a3.37,3.37,0,0,0,2.076-.684,5.24,5.24,0,0,0,1.14-1.164l-.96-.96A3.216,3.216,0,0,1,.42-4.6a2.372,2.372,0,0,1-.888.228,4.069,4.069,0,0,1-2.124-.84,8.614,8.614,0,0,0-1.092-.66,3.367,3.367,0,0,0-1.548-.36A3.42,3.42,0,0,0-7.2-5.6,4.126,4.126,0,0,0-8.388-4.536Zm12.886-3.6V0H6.671V-8.543H5.446l-1.213.885v1.3ZM10.538-6.17a1.166,1.166,0,0,1,.381-.92,1.281,1.281,0,0,1,.838-.3,1.305,1.305,0,0,1,.855.3,1.185,1.185,0,0,1,.369.92,1.163,1.163,0,0,1-.369.9,1.247,1.247,0,0,1-.855.322,1.225,1.225,0,0,1-.838-.322A1.145,1.145,0,0,1,10.538-6.17ZM9.155-2.5A2.4,2.4,0,0,0,9.935-.65,2.559,2.559,0,0,0,11.757.07,2.649,2.649,0,0,0,13.608-.65,2.435,2.435,0,0,0,14.364-2.5a2.229,2.229,0,0,0-1.008-1.922,2.856,2.856,0,0,0,.621-.768,1.922,1.922,0,0,0,.229-.961,2.453,2.453,0,0,0-.7-1.764,2.389,2.389,0,0,0-1.752-.7,2.328,2.328,0,0,0-1.723.7,2.409,2.409,0,0,0-.721,1.764,1.78,1.78,0,0,0,.252.961,2.506,2.506,0,0,0,.6.768A2.229,2.229,0,0,0,9.155-2.5Zm1.225-.012A1.294,1.294,0,0,1,10.8-3.48a1.388,1.388,0,0,1,.955-.381,1.409,1.409,0,0,1,.973.381,1.313,1.313,0,0,1,.41.973,1.3,1.3,0,0,1-.41.961,1.321,1.321,0,0,1-.973.393,1.3,1.3,0,0,1-.955-.393A1.281,1.281,0,0,1,10.38-2.508Zm5.086-.217H16.69V-3.949H15.466Zm0,2.725H16.69V-1.225H15.466Zm4.16-3.861h.516a1.317,1.317,0,0,1,.938.346,1.362,1.362,0,0,1,.387,1.008,1.307,1.307,0,0,1-.387.984,1.234,1.234,0,0,1-.908.369,1.16,1.16,0,0,1-.809-.275,1.726,1.726,0,0,1-.463-.691H17.675a2.675,2.675,0,0,0,.873,1.629A2.345,2.345,0,0,0,20.095.07,2.569,2.569,0,0,0,21.946-.65a2.513,2.513,0,0,0,.744-1.893,2.421,2.421,0,0,0-.229-1.031,2.13,2.13,0,0,0-.779-.844,1.989,1.989,0,0,0,.732-.814,2.622,2.622,0,0,0,.176-.949,2.459,2.459,0,0,0-.668-1.687,2.45,2.45,0,0,0-1.852-.744,2.232,2.232,0,0,0-1.582.656,2.5,2.5,0,0,0-.768,1.6h1.225a1.267,1.267,0,0,1,.457-.779,1.133,1.133,0,0,1,.715-.252,1.27,1.27,0,0,1,.891.346,1.238,1.238,0,0,1,.357.885,1.152,1.152,0,0,1-.346.867,1.315,1.315,0,0,1-.973.346h-.422Zm7.729,1.4q-.035,1.295-1.2,1.307-1.172-.012-1.2-1.307V-6.082q.023-1.283,1.2-1.307,1.166.023,1.2,1.307Zm-3.621.07a2.3,2.3,0,0,0,.756,1.816A2.438,2.438,0,0,0,26.153.07a2.475,2.475,0,0,0,1.693-.645,2.387,2.387,0,0,0,.732-1.816V-6.158a2.394,2.394,0,0,0-.732-1.822,2.43,2.43,0,0,0-1.693-.633,2.392,2.392,0,0,0-1.664.633,2.3,2.3,0,0,0-.756,1.822Z" transform="translate(-13317.988 -4968.043)"/>
    <path id="パス_94214" data-name="パス 94214" d="M-21.06.96l.6-.31A6.258,6.258,0,0,1-22.32-3.8a6.258,6.258,0,0,1,1.86-4.45l-.6-.31A6.644,6.644,0,0,0-23.05-3.8,6.644,6.644,0,0,0-21.06.96Zm5.67-4.89h.72V-6.21h3.19v1.4h.69V-6.75h-3.88v-.61h3.3v-.58h-7.26v.58h3.24v.61H-19.2v1.94h.67v-1.4h3.14Zm1.25-.26h2.38v-.47h-2.38Zm0-1.48v.46H-12v-.46Zm-1.76,0h-2.11v.46h2.11Zm-2.3,1.48h2.3v-.47h-2.3Zm.56,3.01v-.68h2.22v.68Zm2.22-1.87v.69h-2.22v-.69Zm3.09.69h-2.38v-.69h2.38Zm-2.38,1.18v-.68h2.38v.68Zm.75,1.27c-.63,0-.75-.07-.75-.41V-.64h3.1V-3.59h-6.74V-.12h.71V-.64h2.22v.32c0,.8.31.99,1.43.99h2.3c.94,0,1.17-.3,1.28-1.51a2.043,2.043,0,0,1-.65-.25c-.05,1-.15,1.18-.68,1.18Zm7.73-8.11H-9.05v.6h2.82Zm-.6,6.04V-.31H-8.48V-1.98Zm.65-.61H-9.13V.75h.65V.3h2.3Zm-2.93-.77h2.9v-.59h-2.9Zm2.9-1.95h-2.9v.59h2.9Zm-3.37-.77h3.7v-.61h-3.7ZM-1.59-.41H-4.53v-2h2.94Zm1.2-4.35v-.71H-2.73v-1.7A16.073,16.073,0,0,0-.75-7.6l-.54-.6a26.053,26.053,0,0,1-4.28.71,2.39,2.39,0,0,1,.21.62c.6-.05,1.24-.11,1.88-.19v1.59H-5.81v.71h2.33v1.67H-5.23V.76h.7V.26h2.94V.7h.74V-3.09H-2.73V-4.76ZM8.18-8.4a52.283,52.283,0,0,1-7.33.74,2.26,2.26,0,0,1,.17.63A52.556,52.556,0,0,0,8.7-7.8ZM5.52-5.73a6.009,6.009,0,0,0-.53-1.45l-.67.15a5.813,5.813,0,0,1,.5,1.47Zm-4.07.89H8.53v1.37h.73V-5.5H7.55c.3-.44.65-.98.92-1.47L7.72-7.2a12.371,12.371,0,0,1-.93,1.7H2.44l.59-.19A5.891,5.891,0,0,0,2.32-7l-.64.18A7.057,7.057,0,0,1,2.34-5.5H.75v2.03h.7ZM6.93-3.02A5.447,5.447,0,0,1,5.03-1.3,5.873,5.873,0,0,1,3.07-3.02Zm.62-.72-.15.03H1.95v.69h.43l-.1.04A7.074,7.074,0,0,0,4.3-.92,13.825,13.825,0,0,1,.54.08,2.814,2.814,0,0,1,.98.74,13.445,13.445,0,0,0,5.01-.5,11.682,11.682,0,0,0,9,.74,2.826,2.826,0,0,1,9.45.05a12.759,12.759,0,0,1-3.7-.97A6.23,6.23,0,0,0,8.04-3.43ZM12.96-8.3a11.119,11.119,0,0,1-2.54,4.04,5.871,5.871,0,0,1,.46.73,10.43,10.43,0,0,0,1.01-1.21V.74h.74V-5.89a15.672,15.672,0,0,0,1.06-2.18ZM19.5-6.15H18.24v-2.1h-.75v2.1H13.46v.74h4.03V-.25c0,.23-.09.29-.31.31-.24.01-1.06.01-1.9-.02a3.359,3.359,0,0,1,.29.73A8.61,8.61,0,0,0,17.71.65c.37-.11.53-.34.53-.9V-5.41H19.5ZM16.23-1.94c-.32-.61-.98-1.65-1.5-2.42l-.64.3c.51.8,1.15,1.87,1.45,2.49Zm4.83-6.62-.6.31A6.258,6.258,0,0,1,22.32-3.8,6.258,6.258,0,0,1,20.46.65l.6.31A6.644,6.644,0,0,0,23.05-3.8,6.644,6.644,0,0,0,21.06-8.56Z" transform="translate(-13264.151 -4968.668)"/>
  </g>
</svg>
