<svg xmlns="http://www.w3.org/2000/svg" width="9.876" height="84.519" viewBox="0 0 9.876 84.519">
  <g id="グループ_47721" data-name="グループ 47721" transform="translate(15916.192 10400.412)">
    <path id="パス_94218" data-name="パス 94218" d="M3.2-5.088C2.244-5.46,1.68-5.976,1.68-6.852c0-1.032.8-1.56,1.9-1.56a2.1,2.1,0,0,1,1.152.3l.288,1.524h.636l.06-1.68A3.4,3.4,0,0,0,3.6-8.952C2.016-8.952.768-8.1.768-6.6c0,1.26.852,2.016,2.2,2.556l.492.192c1.248.5,1.752.936,1.752,1.8,0,1.116-.876,1.7-2.184,1.7A2.676,2.676,0,0,1,1.548-.72L1.26-2.3H.648L.588-.5a4.838,4.838,0,0,0,2.5.7C4.836.192,6.12-.732,6.12-2.256c0-1.212-.624-1.932-2.4-2.64Zm9.1,3.6A2.223,2.223,0,0,1,10.428-.5c-1.3,0-2.208-.984-2.208-2.664S9.084-5.856,10.3-5.856a2.6,2.6,0,0,1,.816.144l.264.9a.6.6,0,0,0,.612.516.485.485,0,0,0,.528-.444,2.226,2.226,0,0,0-2.256-1.6A3.035,3.035,0,0,0,7.272-3.084c0,1.992,1.152,3.252,2.9,3.252a2.409,2.409,0,0,0,2.376-1.536ZM15.4-6.2l-.168-.12L13.5-5.688V-5.3l1.068.084c.024.564.048,1.056.048,1.824v.66c0,.612-.012,1.536-.036,2.208L13.6-.384V0h3.06V-.384l-1.1-.156c-.012-.672-.024-1.584-.024-2.2V-3.828A3.288,3.288,0,0,1,16.776-5.58l.168.144a1.164,1.164,0,0,0,.768.348c.468,0,.672-.3.672-.816a1.039,1.039,0,0,0-.912-.432,2.381,2.381,0,0,0-1.956,1.7ZM21.876.168a2.949,2.949,0,0,0,2.94-3.228,3,3,0,0,0-2.94-3.276A2.987,2.987,0,0,0,18.924-3.06,2.951,2.951,0,0,0,21.876.168Zm0-.48c-1.212,0-1.932-.948-1.932-2.748s.72-2.8,1.932-2.8,1.932,1.008,1.932,2.8S23.076-.312,21.876-.312ZM27.792-.54c-.012-.708-.024-1.488-.024-2.2V-7.728L27.8-9.576l-.18-.108-1.86.5v.372l1.092.1v5.976c0,.708-.012,1.488-.024,2.2l-1.116.156V0h3.156V-.384Zm3.888,0c-.012-.708-.024-1.488-.024-2.2V-7.728l.036-1.848-.18-.108-1.86.5v.372l1.092.1v5.976c0,.708-.012,1.488-.024,2.2L29.6-.384V0H32.76V-.384Z" transform="translate(-15916 -10401) rotate(90)"/>
    <path id="パス_94188" data-name="パス 94188" d="M-16961.5-9725.246v43.606" transform="translate(1051 -634.254)" fill="none" stroke="#000" stroke-width="1"/>
  </g>
</svg>
