<svg id="グループ_46764" data-name="グループ 46764" xmlns="http://www.w3.org/2000/svg" width="62.008" height="58.007" viewBox="0 0 62.008 58.007">
  <g id="グループ_46722" data-name="グループ 46722">
    <path id="パス_93071" data-name="パス 93071" d="M0,0H62.008V58.007H0Z" fill="#333"/>
    <g id="グループ_46721" data-name="グループ 46721" transform="translate(12.002 12.002)">
      <g id="グループ_46719" data-name="グループ 46719" transform="translate(8.634)">
        <path id="パス_1006" data-name="パス 1006" d="M20.182,15.24l-3.271-3.259a1.9,1.9,0,0,0-2.691,0h0l-1.874,1.874a.413.413,0,0,1-.53.047q-.385-.269-.757-.554t-.731-.587q-.359-.3-.7-.619t-.677-.65q-.3-.3-.581-.6t-.557-.625q-.272-.318-.532-.647t-.506-.668a.407.407,0,0,1,.041-.53L8.729,6.5a1.9,1.9,0,0,0,0-2.689L5.458.54a1.948,1.948,0,0,0-2.694,0L1.728,1.576A5.818,5.818,0,0,0,.285,7.512q.19.574.419,1.133t.5,1.1q.267.541.571,1.063t.644,1.022q.306.459.634.9t.678.868q.35.425.72.833t.761.8q.425.428.872.831t.916.78q.468.378.957.73t1,.677q.558.364,1.143.682t1.192.588q.607.27,1.235.491T13.8,20.4q.166.041.333.072t.337.051q.169.02.339.031t.341.01A5.889,5.889,0,0,0,19.3,18.82l.89-.89a1.9,1.9,0,0,0,0-2.689Zm-.824,1.9h0l.006-.017-.89.89a4.655,4.655,0,0,1-4.394,1.257q-.6-.16-1.181-.367t-1.146-.46q-.563-.252-1.106-.55t-1.06-.637q-.481-.307-.944-.64t-.907-.691q-.444-.358-.867-.74T6.04,14.4q-.37-.368-.721-.753t-.683-.787q-.331-.4-.643-.82t-.6-.852q-.317-.467-.6-.953T2.26,9.244q-.249-.5-.464-1.026T1.4,7.157A4.654,4.654,0,0,1,2.566,2.4L3.6,1.367a.738.738,0,0,1,1.045,0h0L7.92,4.637a.738.738,0,0,1,0,1.045h0L6,7.605a1.564,1.564,0,0,0-.163,2.037q.26.357.535.7t.562.682q.288.336.588.66t.614.636q.349.351.714.686t.743.653q.379.318.771.619t.8.585a1.576,1.576,0,0,0,2.014-.175L15.034,12.8a.738.738,0,0,1,1.045,0h0l3.276,3.282a.738.738,0,0,1,0,1.045Z" fill="#fcfcfc"/>
      </g>
      <path id="電話受付" d="M4.339,6.464h.648V4.412H7.859v1.26H8.48V3.926H4.987V3.377h2.97V2.855H1.423v.522H4.339v.549H.91V5.672h.6V4.412H4.339ZM5.464,6.23H7.607V5.807H5.464Zm0-1.332v.414H7.391V4.9ZM3.88,4.9H1.98v.414h1.9ZM1.81,6.23H3.88V5.807H1.81Zm.5,2.709V8.327h2v.612Zm2-1.683v.621h-2V7.256Zm2.781.621H4.951V7.256H7.094ZM4.951,8.939V8.327H7.094v.612Zm.675,1.143a3.045,3.045,0,0,1-.345-.015.568.568,0,0,1-.2-.055.21.21,0,0,1-.1-.113.524.524,0,0,1-.026-.187V9.426H7.74V6.77H1.675V9.894h.639V9.426h2v.288a1.333,1.333,0,0,0,.059.443.531.531,0,0,0,.206.273.976.976,0,0,0,.4.138A4.028,4.028,0,0,0,5.6,10.6H7.67a1.836,1.836,0,0,0,.523-.059.667.667,0,0,0,.333-.212,1.051,1.051,0,0,0,.193-.416,4.274,4.274,0,0,0,.1-.672c-.047-.009-.1-.021-.15-.036s-.1-.033-.156-.052a1.47,1.47,0,0,1-.15-.064,1.223,1.223,0,0,1-.129-.072,5.443,5.443,0,0,1-.048.546.953.953,0,0,1-.1.323.334.334,0,0,1-.177.154.823.823,0,0,1-.291.039Zm7.5-7.3h-2.54v.54h2.538Zm-.54,5.437v1.5H11.1v-1.5Zm.585-.549H10.514v3.006H11.1v-.4h2.07Zm-2.637-.693h2.61V6.446h-2.61Zm2.61-1.755h-2.61v.531h2.61Zm-3.033-.693h3.33V3.98h-3.33Zm7.192,5.1H14.655v-1.8H17.3Zm1.08-3.915V5.078H16.275V3.548c.164-.027.326-.055.485-.085s.313-.06.464-.092.3-.066.435-.1.273-.072.4-.11l-.486-.54c-.225.07-.494.136-.792.2s-.625.121-.966.175-.7.1-1.05.148-.707.084-1.045.118c.018.038.038.082.057.129s.039.1.057.147.034.1.047.148a.915.915,0,0,1,.027.134l.411-.036.421-.04.428-.045.431-.051v1.43H13.5v.639h2.1v1.5H14.025v3.465h.63v-.45H17.3v.4h.666V7.22H16.275V5.72Zm8.254-3.276c-.385.083-.846.16-1.356.231s-1.071.134-1.656.19-1.193.105-1.8.146-1.211.074-1.787.1c.016.038.033.082.049.129s.033.1.048.148a1.233,1.233,0,0,1,.037.151.988.988,0,0,1,.019.139c.583-.023,1.194-.053,1.81-.093s1.239-.088,1.845-.145,1.2-.124,1.746-.2,1.062-.161,1.512-.255Zm-2.394,2.4c-.016-.086-.04-.184-.071-.29s-.068-.22-.11-.336-.089-.234-.139-.349-.1-.227-.157-.331l-.6.135c.052.1.1.216.15.332s.092.236.132.353a3.548,3.548,0,0,1,.1.341,2.94,2.94,0,0,1,.064.3Zm-3.663.8h6.37v1.24h.657V5.051H26.068c.068-.1.138-.2.209-.312s.144-.22.215-.333.142-.228.21-.341.133-.227.194-.337l-.675-.207c-.05.115-.108.24-.173.369s-.135.265-.209.4-.15.269-.227.4-.154.252-.228.364H21.468L22,4.88a2.707,2.707,0,0,0-.109-.269c-.045-.1-.1-.2-.153-.3S21.619,4.1,21.555,4s-.13-.2-.195-.294l-.576.162c.059.092.118.192.176.3s.115.21.168.315.1.209.144.307a2.882,2.882,0,0,1,.1.27h-1.43V6.878h.63Zm4.93,1.645a4.026,4.026,0,0,1-.343.455,4.522,4.522,0,0,1-.4.407,5.3,5.3,0,0,1-.458.363q-.241.171-.5.323-.273-.155-.522-.329a5.646,5.646,0,0,1-.471-.367,4.931,4.931,0,0,1-.415-.406,4.427,4.427,0,0,1-.355-.446Zm.558-.648-.135.027H21.027v.621h.387l-.09.036a5.836,5.836,0,0,0,.374.526,6.151,6.151,0,0,0,.431.485q.229.232.483.443t.531.4c-.248.113-.506.214-.774.306s-.545.175-.83.248-.577.139-.874.2-.6.107-.906.15a1.316,1.316,0,0,1,.109.127,1.786,1.786,0,0,1,.113.16c.037.06.071.112.1.165s.055.1.073.142q.486-.078.962-.183t.933-.243c.305-.092.6-.194.893-.309a8.794,8.794,0,0,0,.84-.381,8.6,8.6,0,0,0,.8.383q.418.174.868.313t.93.244q.48.1.99.176c.02-.045.047-.1.077-.153s.065-.114.1-.171.075-.114.113-.165a1.284,1.284,0,0,1,.113-.132q-.469-.057-.914-.14T26,9.715q-.418-.109-.807-.244t-.747-.3a6.487,6.487,0,0,0,.628-.458,5.758,5.758,0,0,0,.558-.526,5.366,5.366,0,0,0,.48-.6,5.311,5.311,0,0,0,.4-.676Zm5.41-4.1a10.7,10.7,0,0,1-.445,1.034,10.982,10.982,0,0,1-.547.98,9.683,9.683,0,0,1-.623.882,7.293,7.293,0,0,1-.672.74,1.711,1.711,0,0,1,.106.146c.038.057.079.12.117.183s.076.126.109.183.061.107.081.146q.115-.118.231-.246t.231-.265q.115-.137.227-.282t.221-.3v4.933h.666V4.7q.138-.233.267-.474t.247-.487q.119-.246.229-.5t.211-.5ZM37.365,4.47H36.23V2.576h-.675v1.89H31.928v.666h3.627V9.777a.437.437,0,0,1-.016.128.181.181,0,0,1-.05.082.218.218,0,0,1-.087.047.64.64,0,0,1-.127.022h-.652c-.152,0-.323,0-.5-.007s-.367-.009-.556-.015c.025.045.051.1.077.155s.052.117.077.177.046.12.065.176a1.429,1.429,0,0,1,.042.15h.662c.2,0,.376,0,.534-.012s.3-.018.418-.034a1.924,1.924,0,0,0,.312-.064.763.763,0,0,0,.215-.1.5.5,0,0,0,.148-.156A.712.712,0,0,0,36.2,10.1a1.645,1.645,0,0,0,.028-.325V5.132h1.134ZM34.421,8.255c-.072-.137-.163-.3-.267-.475s-.219-.366-.341-.561-.249-.394-.375-.588-.251-.382-.368-.556l-.576.27c.115.18.237.375.36.576s.246.406.364.606.229.4.328.576.186.345.253.484Z" transform="translate(0 21.914)" fill="#fcfcfc"/>
    </g>
  </g>
</svg>
