<svg xmlns="http://www.w3.org/2000/svg" width="8.23" height="63.51" viewBox="0 0 8.23 63.51">
  <g id="グループ_47720" data-name="グループ 47720" transform="translate(15774.16 10421.51)">
    <path id="パス_94219" data-name="パス 94219" d="M2.67-4.24c-.8-.31-1.27-.74-1.27-1.47,0-.86.67-1.3,1.58-1.3a1.746,1.746,0,0,1,.96.25l.24,1.27h.53l.05-1.4A2.831,2.831,0,0,0,3-7.46C1.68-7.46.64-6.75.64-5.5c0,1.05.71,1.68,1.83,2.13l.41.16c1.04.42,1.46.78,1.46,1.5,0,.93-.73,1.42-1.82,1.42A2.23,2.23,0,0,1,1.29-.6L1.05-1.92H.54L.49-.42A4.031,4.031,0,0,0,2.57.16C4.03.16,5.1-.61,5.1-1.88c0-1.01-.52-1.61-2-2.2Zm7.58,3a1.852,1.852,0,0,1-1.56.82c-1.08,0-1.84-.82-1.84-2.22s.72-2.24,1.73-2.24a2.169,2.169,0,0,1,.68.12l.22.75a.5.5,0,0,0,.51.43.4.4,0,0,0,.44-.37A1.855,1.855,0,0,0,8.55-5.28,2.529,2.529,0,0,0,6.06-2.57,2.412,2.412,0,0,0,8.48.14a2.007,2.007,0,0,0,1.98-1.28Zm2.58-3.93-.14-.1-1.44.53v.32l.89.07c.02.47.04.88.04,1.52v.55c0,.51-.01,1.28-.03,1.84l-.82.12V0h2.55V-.32l-.92-.13c-.01-.56-.02-1.32-.02-1.83v-.91a2.74,2.74,0,0,1,1.04-1.46l.14.12a.97.97,0,0,0,.64.29c.39,0,.56-.25.56-.68a.865.865,0,0,0-.76-.36,1.984,1.984,0,0,0-1.63,1.42ZM18.23.14a2.457,2.457,0,0,0,2.45-2.69,2.5,2.5,0,0,0-2.45-2.73,2.489,2.489,0,0,0-2.46,2.73A2.459,2.459,0,0,0,18.23.14Zm0-.4c-1.01,0-1.61-.79-1.61-2.29s.6-2.33,1.61-2.33,1.61.84,1.61,2.33S19.23-.26,18.23-.26Zm4.93-.19c-.01-.59-.02-1.24-.02-1.83V-6.44l.03-1.54-.15-.09-1.55.42v.31l.91.08v4.98c0,.59-.01,1.24-.02,1.83l-.93.13V0h2.63V-.32Zm3.24,0c-.01-.59-.02-1.24-.02-1.83V-6.44l.03-1.54-.15-.09-1.55.42v.31l.91.08v4.98c0,.59-.01,1.24-.02,1.83l-.93.13V0H27.3V-.32Z" transform="translate(-15774 -10422) rotate(90)"/>
    <path id="パス_94188" data-name="パス 94188" d="M-16961.5-9725.246v31.255" transform="translate(1191.407 -664.009)" fill="none" stroke="#000" stroke-width="1"/>
  </g>
</svg>
